<?xml version="1.0" encoding="utf-8"?>
<!-- Generator: Adobe Illustrator 21.0.2, SVG Export Plug-In . SVG Version: 6.00 Build 0)  -->
<svg version="1.1" id="Laag_1" xmlns="http://www.w3.org/2000/svg" xmlns:xlink="http://www.w3.org/1999/xlink" x="0px" y="0px"
	 viewBox="0 0 138.8 43.4" enable-background="new 0 0 138.8 43.4" xml:space="preserve">
<g>
	<g>
		<g>
			<path fill="#FFFFFF" d="M26.5,9.9c-0.7,0-1.3,0.5-1.3,1.5v13.5c0,0.9,0.6,1.5,1.3,1.5c0.7,0,1.3-0.5,1.3-1.5V11.4
				C27.8,10.5,27.2,9.9,26.5,9.9z"/>
			<path fill="#FFFFFF" d="M119.4,10.1h-1.2v5.7h1.3c0.7,0,1.1-0.5,1.1-1.4v-2.3v-0.5C120.7,10.7,120.2,10.1,119.4,10.1z"/>
			<path fill="#FFFFFF" d="M63.3,10.1H62v7h1.1c0.9,0,1.5-0.5,1.5-1.6v-3.9C64.6,10.7,64.1,10.1,63.3,10.1z"/>
		</g>
	</g>
	<g>
		<polygon fill="#FFFFFF" points="131.6,36.3 128.8,36.3 128.8,33.9 126.7,33.9 126.7,37.1 131.6,37.1 		"/>
		<polygon fill="#FFFFFF" points="9.7,37.1 11.8,37.1 11.8,34.7 13.7,34.7 13.7,33.9 7.9,33.9 7.9,34.7 9.7,34.7 		"/>
		<path fill="#FFFFFF" d="M34.5,37.1c1.9,0,3.3-0.6,3.3-1.7c0-0.8-1.1-1.7-3.3-1.7c-2,0-3.3,0.6-3.3,1.6
			C31.2,36.5,32.6,37.1,34.5,37.1z M34.5,34.6c0.9,0,1.3,0.4,1.3,0.9c0,0.5-0.4,0.9-1.3,0.9c-1,0-1.2-0.5-1.2-0.9
			C33.3,35.1,33.6,34.6,34.5,34.6z"/>
		<path fill="#FFFFFF" d="M0,0v43.4h138.8V0H0z M127.8,5.4h5.3v9l-1,9.9h-3.3l-1-9.9V5.4z M130.4,26.1c1.4,0,2.5,1.1,2.5,2.5
			c0,1.4-1.1,2.5-2.5,2.5c-1.4,0-2.5-1.1-2.5-2.5C127.8,27.3,129,26.1,130.4,26.1z M112.8,5.4h6.6c4.6,0,6.6,2.1,6.6,6v2.8
			c0,1.9-0.7,3.6-2.2,4c1.5,0.5,2.2,2.1,2.2,4v5.7c0,1.2,0.2,2.1,0.7,3.1h-5.5c-0.4-0.8-0.5-1.8-0.5-2.9v-6.1c0-0.9-0.5-1.4-1.1-1.4
			h-1.3v10.5h-5.4V5.4z M100.9,5.4h10.5v4.8h-5.2v5.1h4.6v4.7h-4.6v5.9h5.2v5.1h-10.5V5.4z M86,5.4h13.5v4.8h-4v21H90v-21h-4V5.4z
			 M71.3,5.4h5.4v19.5c0,0.9,0.6,1.5,1.2,1.5c0.7,0,1.2-0.5,1.2-1.5V5.4h5.4v19.6c0,3.8-2.6,6.1-6.6,6.1c-4,0-6.6-2.3-6.6-6.1V5.4z
			 M56.6,5.4h6.7c4.6,0,6.6,2.1,6.6,6v4.6c0,3.7-2.3,5.8-6.1,5.8H62v9.3h-5.3V5.4z M34.6,5.4h7.5L44.9,23h0.1l2.7-17.6h7.5v25.8H50
			V18.9c0-2.5,0.2-5.4,0.2-5.4h-0.1L47,31.2h-4.2l-3.2-17.8h-0.1c0,0,0.2,2.9,0.2,5.4v12.4h-5V5.4z M19.9,11.2
			c0-3.8,2.7-6.1,6.7-6.1s6.7,2.3,6.7,6.1v13.8c0,3.8-2.7,6.1-6.7,6.1s-6.7-2.3-6.7-6.1V11.2z M5.4,11.2c0-3.8,2.5-6.1,6.5-6.1
			s6.5,2.3,6.5,6.1v2.3h-5.4v-2.1c0-0.9-0.5-1.5-1.1-1.5s-1.1,0.5-1.1,1.5v13.5c0,0.9,0.5,1.5,1.1,1.5s1.1-0.5,1.1-1.5v-2.7h5.4v2.9
			c0,3.8-2.5,6.1-6.5,6.1s-6.5-2.3-6.5-6.1V11.2z M133.4,38.3H5.4v-5.3h128V38.3z"/>
		<polygon fill="#FFFFFF" points="57.3,37.1 59.4,37.1 59.4,34.7 61.2,34.7 61.2,33.9 55.4,33.9 55.4,34.7 57.3,34.7 		"/>
		<path fill="#FFFFFF" d="M104.6,36.6h2.1l0.2,0.4h2.1l-2.3-3.2h-2.1l-2.3,3.2h2L104.6,36.6z M105.7,34.8l0.7,1.1H105L105.7,34.8z"
			/>
		<path fill="#FFFFFF" d="M80.8,36.6h2.1l0.2,0.4h2.1l-2.3-3.2h-2.1l-2.3,3.2h2L80.8,36.6z M81.9,34.8l0.7,1.1h-1.3L81.9,34.8z"/>
	</g>
</g>
</svg>
