<?xml version="1.0" encoding="utf-8"?>
<!-- Generator: Adobe Illustrator 21.0.2, SVG Export Plug-In . SVG Version: 6.00 Build 0)  -->
<svg version="1.1" id="Laag_1" xmlns="http://www.w3.org/2000/svg" xmlns:xlink="http://www.w3.org/1999/xlink" x="0px" y="0px"
	 viewBox="0 0 187 32.1" enable-background="new 0 0 187 32.1" xml:space="preserve">
<g>
	<g>
		<path fill="#FFFFFF" d="M61.8,16.4c-0.7,0-1.2,0.4-1.7,1.2l-1.1,5c0,0.2,0.3,0.3,0.7,0.3c1,0,1.8-0.2,2.6-3.6
			c0.2-0.8,0.3-1.5,0.3-2C62.6,16.7,62.4,16.4,61.8,16.4z"/>
		<path fill="#FFFFFF" d="M97.4,15.9c-1.1,0-1.7,0.9-1.9,2.2c0.1,0.1,0.4,0.1,0.9,0.1c1,0,2-0.5,2-1.4C98.3,16.2,98,15.9,97.4,15.9z
			"/>
		<path fill="#FFFFFF" d="M6,6.2l-6,26h115.7l6-26H6z M14,30.8c-4.9,0-7.8-3-7.8-7.4c0-4.4,1.6-9.5,5.1-12.6c2-1.8,4.5-2.9,8-2.9
			c2.6,0,4.6,0.7,5.7,1.6l-3.1,3.9c-0.9-0.7-1.9-1.1-3.2-1.1c-1.2,0-2.2,0.4-3.2,1.5c-1.5,1.5-2.7,5.8-2.7,9.1c0,2.2,1.3,3.3,3,3.3
			c1.4,0,2.6-0.4,4.1-1.5l1.7,4C19.7,29.9,17.2,30.8,14,30.8z M25.8,26.3c-3,0-4.7-1.6-4.7-4.6c0-3.3,1.8-8.7,7.8-8.7
			c2.6,0,4.7,1.3,4.7,4.5C33.6,20.8,31.7,26.3,25.8,26.3z M47.1,25.9l1.7-8.1c0.1-0.3,0.1-0.6,0.1-0.8c0-0.4-0.2-0.6-0.7-0.6
			c-0.7,0-1.1,0.4-1.7,1.2l-1.8,8.3h-4l1.7-8.1c0.1-0.3,0.1-0.6,0.1-0.9c0-0.4-0.1-0.6-0.6-0.6c-0.7,0-1.1,0.3-1.7,1.2l-1.8,8.3
			h-4.1l1.7-8c0.3-1.3,0.4-2.3,0.4-3.2c0-0.4-0.1-0.7-0.1-1.1l3.8-0.7c0.1,0.3,0.1,0.9,0.2,1.3c0.8-0.7,2.1-1.3,3.7-1.3
			c1.4,0,2.2,0.6,2.5,1.4c1-0.9,2.3-1.4,3.7-1.4c2.4,0,3,1,3,2.3c0,0.4-0.1,0.9-0.2,1.3l-2,9.3H47.1z M66.9,19
			c-1,4.9-3.5,7.3-6.9,7.3c-0.8,0-1.3-0.2-1.9-0.4c0.1,0.5-0.1,1.4-0.2,1.9l-0.5,2.6l-4.5,1.2L55.7,18c0.3-1.3,0.4-2.3,0.4-3.2
			c0-0.4,0-0.7-0.1-1.1l3.8-0.7c0.1,0.3,0.2,0.9,0.2,1.4c0.7-0.6,2-1.4,3.7-1.4c2.7,0,3.5,1.8,3.5,3.9C67.1,17.5,67,18.3,66.9,19z
			 M79.7,21.3c-0.3,1.3-0.3,2.5,0,3.8l-4,1.4c-0.2-0.4-0.4-1.3-0.4-1.6c-1,0.8-2.4,1.3-3.8,1.3c-1.6,0-3.1-0.5-3.1-2.5
			c0-0.6,0.1-1.4,0.4-2.8l1.6-7.4l4.4-0.6L73,21.4c-0.2,1-0.1,1.4,0.6,1.4c0.7,0,1.2-0.3,1.8-1.2l1.7-8.1l4.4-0.6L79.7,21.3z
			 M88,23.3c0.4,0,0.8-0.1,1.1-0.2l0,2.5c-1.2,0.5-2.3,0.7-3.2,0.7c-2.3,0-3.6-0.4-3.6-2.2c0-0.3,0.1-0.7,0.1-1.1l1.5-6.9h-1
			l0.6-2.8h1c0.3-1.2,0.5-2.4,0.8-3.1l4.4-0.6c-0.4,1.4-0.7,2.6-0.9,3.8h2.3l-1.2,2.8h-1.8l-1.1,5.1c-0.1,0.5-0.2,1-0.2,1.3
			C86.9,23.2,87.2,23.3,88,23.3z M96.2,21c-0.7,0-1.3,0-1.5-0.1c0,0.2-0.1,0.6-0.1,0.8c0,1.2,0.5,1.6,1.8,1.6c1.1,0,2.5-0.5,3.6-1.3
			l0.8,2.7c-2,1.1-3.9,1.6-5.2,1.6c-3.6,0-5.3-1.4-5.3-4.7c0-4.7,2.8-8.7,7.4-8.7c2.6,0,4.8,1,4.8,3.6C102.6,18.9,100.4,21,96.2,21z
			 M111.9,16.7c-0.4-0.2-0.7-0.3-1.2-0.3c-0.7,0-1.2,0.4-1.7,1.2l-1.8,8.3h-4.3l1.6-7.7c0.5-2.2,0.6-3.3,0.4-4.6l3.8-0.7
			c0.1,0.5,0.2,0.9,0.2,1.4c0.6-0.7,1.8-1.5,3.1-1.5c0.6,0,1,0.1,1.5,0.4L111.9,16.7z"/>
		<path fill="#FFFFFF" d="M28.1,15.9c-1.8,0-2.5,5.3-2.5,6.2c0,0.8,0.3,1.2,1,1.2c1.8,0,2.5-5.3,2.5-6.2
			C29.1,16.2,28.7,15.9,28.1,15.9z"/>
	</g>
	<g>
		<path fill="#FFFFFF" d="M133.1,0c0.3,0.7,0.5,1.5,0.5,2.4c0,3.3-2.7,6-6,6c-3.3,0-6-2.7-6-6c0-0.8,0.2-1.7,0.5-2.4h-2.5l-6.1,28.9
			h67.3L187,0H133.1z M125.6,25.7H120l3.4-16.2l5.7-0.5L125.6,25.7z M143.4,25.7h-4.8c-0.1-0.3-0.2-0.9-0.2-1.2
			c-0.7,0.9-2,1.6-3.9,1.6c-3.1,0-4.9-1.9-4.9-5.4c0-4.1,2-11.9,9.3-11.9c0.8,0,1.3,0.3,1.8,0.5c0-0.5,0.3-1.7,0.4-2.5l0.9-4.4
			l5.4,0.6l-3.4,16.2C143.3,23.3,143.2,24.4,143.4,25.7z M154.8,19.3c-0.9,0-1.7-0.1-1.9-0.1c-0.1,0.3-0.1,0.8-0.1,1
			c0,1.6,0.6,2,2.3,2c1.4,0,3.2-0.7,4.6-1.6l1.1,3.5c-2.6,1.5-5.1,2-6.8,2c-4.7,0-6.9-1.9-6.9-6.1c0-6.1,3.6-11.2,9.7-11.2
			c3.4,0,6.2,1.3,6.2,4.7C163,16.5,160.2,19.3,154.8,19.3z M172.1,19.3c-0.9,0-1.7-0.1-1.9-0.1c-0.1,0.3-0.1,0.8-0.1,1
			c0,1.6,0.6,2,2.3,2c1.4,0,3.2-0.7,4.6-1.6l1.1,3.5c-2.6,1.5-5.1,2-6.8,2c-4.7,0-6.9-1.9-6.9-6.1c0-6.1,3.6-11.2,9.7-11.2
			c3.4,0,6.2,1.3,6.2,4.7C180.3,16.5,177.4,19.3,172.1,19.3z"/>
		<path fill="#FFFFFF" d="M156.2,12.7c-1.4,0-2.2,1.1-2.5,2.8c0.2,0.1,0.5,0.2,1.1,0.2c1.2,0,2.6-0.6,2.6-1.8
			C157.5,13.1,157,12.7,156.2,12.7z"/>
		<path fill="#FFFFFF" d="M138.7,13.1c-2.5,0-3.3,6.2-3.3,7.2c0,1,0.3,1.6,1.1,1.6c0.7,0,1.4-0.6,1.7-1.1l1.5-7.1
			C139.7,13.4,139.2,13.1,138.7,13.1z"/>
		<path fill="#FFFFFF" d="M173.5,12.7c-1.4,0-2.2,1.1-2.5,2.8c0.2,0.1,0.5,0.2,1.1,0.2c1.2,0,2.6-0.6,2.6-1.8
			C174.8,13.1,174.3,12.7,173.5,12.7z"/>
	</g>
</g>
</svg>
