<?xml version="1.0" encoding="utf-8"?>
<!-- Generator: Adobe Illustrator 21.0.2, SVG Export Plug-In . SVG Version: 6.00 Build 0)  -->
<svg version="1.1" id="Laag_1" xmlns="http://www.w3.org/2000/svg" xmlns:xlink="http://www.w3.org/1999/xlink" x="0px" y="0px"
	 viewBox="0 0 1597.5 602.9" enable-background="new 0 0 1597.5 602.9" xml:space="preserve">
<g>
	<g>
		<circle fill="#EBF0F6" cx="174.4" cy="490.1" r="42.3"/>
	</g>
	<g>
		<path fill="#4088DA" d="M51.3,417.4c-19.7,0-35.7,16-35.7,35.7c0,13,7,24.4,17.4,30.7l3.2,82.4l15.1,17.3L69,563l-9.6-9.6
			l7.4-11.2l-6.3-4.2v-12.9l-4.9-5.3l8.7-8.7l-6-6l10-10l-7.5-7.5c15.2-4.1,26.3-18,26.3-34.4C86.9,433.4,71,417.4,51.3,417.4z"/>
		<path fill="#1C3E58" d="M51.3,414.4c-21.4,0-38.7,17.4-38.7,38.7c0,13,6.7,25.3,17.5,32.4l3.1,80.8c0,0.7,0.3,1.4,0.8,1.9
			L49,585.5c0.6,0.7,1.4,1.1,2.3,1.1c0,0,0,0,0,0c0.9,0,1.7-0.4,2.3-1.1L71.3,565c1-1.2,1-3-0.2-4.2l-7.9-7.9l6-9.1
			c0.9-1.4,0.5-3.3-0.9-4.2l-5-3.3v-11.3c0-0.8-0.3-1.5-0.8-2.1l-2.9-3.2l6.6-6.6c1.2-1.2,1.2-3.1,0-4.3l-3.9-3.9l7.8-7.8
			c1.2-1.2,1.2-3.1,0-4.3l-4-4c14.2-6,23.7-20,23.7-35.7C90,431.7,72.6,414.4,51.3,414.4z M59.8,484.6c-1.1,0.3-1.9,1.1-2.2,2.2
			c-0.3,1.1,0,2.2,0.8,3l5.3,5.3l-7.8,7.8c-1.2,1.2-1.2,3.1,0,4.3l3.9,3.9l-6.5,6.5c-1.2,1.2-1.2,3-0.1,4.2l4.1,4.5V538
			c0,1,0.5,2,1.4,2.6l3.8,2.5l-5.7,8.6c-0.8,1.2-0.6,2.8,0.4,3.9l7.6,7.6l-13.5,15.7l-12-13.8l-3.1-81.4c0-1-0.6-2-1.5-2.5
			c-9.8-5.9-15.9-16.6-15.9-28c0-18,14.6-32.6,32.6-32.6c18,0,32.6,14.6,32.6,32.6C83.9,467.8,74,480.7,59.8,484.6z"/>
	</g>
	<g>
		<g>
			<path fill="#1C3E58" d="M889.6,123c-1.7,0-3.1,1.4-3.1,3.1v6.1c0,1.7,1.4,3.1,3.1,3.1s3.1-1.4,3.1-3.1v-6.1
				C892.7,124.4,891.3,123,889.6,123z"/>
		</g>
		<g>
			<path fill="#1C3E58" d="M889.6,157.7c-1.7,0-3.1,1.4-3.1,3.1v6.1c0,1.7,1.4,3.1,3.1,3.1s3.1-1.4,3.1-3.1v-6.1
				C892.7,159.1,891.3,157.7,889.6,157.7z"/>
		</g>
		<g>
			<path fill="#1C3E58" d="M910,143.4h-6.1c-1.7,0-3.1,1.4-3.1,3.1s1.4,3.1,3.1,3.1h6.1c1.7,0,3.1-1.4,3.1-3.1
				S911.7,143.4,910,143.4z"/>
		</g>
		<g>
			<path fill="#1C3E58" d="M875.3,143.4h-6.1c-1.7,0-3.1,1.4-3.1,3.1s1.4,3.1,3.1,3.1h6.1c1.7,0,3.1-1.4,3.1-3.1
				S877,143.4,875.3,143.4z"/>
		</g>
	</g>
	<g>
		<g>
			<path fill="#1C3E58" d="M1543.4,382c-1.7,0-3.1,1.4-3.1,3.1v7.4c0,1.7,1.4,3.1,3.1,3.1c1.7,0,3.1-1.4,3.1-3.1V385
				C1546.4,383.3,1545.1,382,1543.4,382z"/>
		</g>
		<g>
			<path fill="#1C3E58" d="M1543.4,423.9c-1.7,0-3.1,1.4-3.1,3.1v7.4c0,1.7,1.4,3.1,3.1,3.1c1.7,0,3.1-1.4,3.1-3.1V427
				C1546.4,425.3,1545.1,423.9,1543.4,423.9z"/>
		</g>
		<g>
			<path fill="#1C3E58" d="M1568,406.6h-7.4c-1.7,0-3.1,1.4-3.1,3.1c0,1.7,1.4,3.1,3.1,3.1h7.4c1.7,0,3.1-1.4,3.1-3.1
				C1571.1,408,1569.7,406.6,1568,406.6z"/>
		</g>
		<g>
			<path fill="#1C3E58" d="M1526.1,406.6h-7.4c-1.7,0-3.1,1.4-3.1,3.1c0,1.7,1.4,3.1,3.1,3.1h7.4c1.7,0,3.1-1.4,3.1-3.1
				C1529.1,408,1527.8,406.6,1526.1,406.6z"/>
		</g>
	</g>
	<g>
		<path fill="#2B71B5" d="M973.5,407.1c-13.5-17.7-38.2-84.8-38.2-84.8l-111.2,65.4l50.2,215.2h164.4c-6.9-13.8-27.7-59.2-31-107.9
			C1003.8,436.6,987,424.8,973.5,407.1z"/>
		<path fill="#1C3E58" d="M981.6,412.3c-2-2.4-3.8-4.6-5.6-7c-13.1-17.1-37.5-83.4-37.8-84c-0.3-0.9-1-1.5-1.8-1.8
			c-0.9-0.3-1.8-0.2-2.6,0.2l-111.2,65.4c-1.2,0.7-1.7,2-1.4,3.3l50.1,214.5h6.3l-49.9-213.7l106.1-62.4
			c5.3,14.1,25.4,66.5,37.4,82.2c1.9,2.5,3.9,4.9,5.8,7.2c12.1,14.6,24.5,29.6,27.9,79c3.2,47.4,23.1,92.2,30.6,107.7h6.8
			c-5.9-11.7-28-58.4-31.3-108.1C1007.4,443.5,993.7,426.9,981.6,412.3z"/>
	</g>
	<g>
		<path fill="#2B71B5" d="M644.8,352.2c0,0,14.3,35.5,7,65.9c-5.8,24-62.1,106.1-62.1,141.5c0,23.9,6.4,37.2,10.5,43.3h161.2
			l19.9-262.4L644.8,352.2z"/>
		<path fill="#1C3E58" d="M783.5,338.4c-0.6-0.6-1.5-1-2.4-0.9l-136.5,11.7c-1,0.1-1.8,0.6-2.3,1.4c-0.5,0.8-0.6,1.8-0.2,2.7
			c0.1,0.3,13.9,35,6.9,64.1c-2.1,8.7-11.5,26.1-22.4,46.1c-18.7,34.4-39.8,73.4-39.8,96.1c0,22.6,5.6,36.1,10,43.3h7.5
			c-3.5-4.6-11.3-17.5-11.3-43.3c0-21.2,21.7-61.1,39.1-93.2c11.1-20.4,20.7-38.1,22.9-47.6c6.1-25.4-2.2-53.8-5.7-63.9L778,343.9
			l-19.6,259h6.1l19.9-262.2C784.5,339.9,784.1,339,783.5,338.4z"/>
	</g>
	<g>
		<path fill="#25CE9E" d="M957.1,443.9c-2.8-24-4.3-139.1-36.6-181.5c-17.1-22.4-69.4-43.5-69.4-43.5s-23.9,32.9-62,32.9
			c-38,0-62-32.9-62-32.9s-12.9,5.6-24.1,14.2l-7,53.3c2.5,1.1,5.1,2.2,7.7,3.2c24.2,9.3,47.8-21.3,50.8-4.1
			c3,17.2-20.6,24-39.7,33.8c-17,8.6-8.5,18.2-28.7,23c3.1,9.2,8.1,16,15.4,18.4l16.9,148.9c0,0,92.4,47.5,139.9,0l21.3-109.4
			c0,0,16.1,55.2,19.5,73.6c3,16.2-10.1,108.1-13.1,129.1h43.4C934.6,579.4,959.6,465.4,957.1,443.9z"/>
		<path fill="#1C3E58" d="M960.1,443.6c-0.5-4-0.9-10.7-1.5-19.2c-2.7-41.5-8.4-127.9-35.7-163.8c-17.4-22.8-68.6-43.7-70.7-44.5
			c-1.3-0.5-2.8-0.1-3.6,1c-0.2,0.3-23.5,31.6-59.5,31.6s-59.3-31.3-59.5-31.6c-0.8-1.2-2.4-1.6-3.7-1c-0.5,0.2-13.4,5.9-24.7,14.6
			c-0.6,0.5-1.1,1.2-1.2,2l-7,53.3c-0.2,1.3,0.6,2.6,1.8,3.2c2.7,1.2,5.3,2.3,7.9,3.3c13.6,5.2,26.8-0.9,36.4-5.4
			c4.3-2,9.7-4.5,11.3-3.7c0.5,0.2,0.9,1.2,1.2,2.7c1.9,11-9.1,16.9-27.4,25.4c-3.5,1.6-7.2,3.3-10.7,5.1
			c-8.4,4.3-11.3,9.1-13.6,12.9c-2.6,4.4-4.6,7.5-14.4,9.9c-0.8,0.2-1.6,0.7-2,1.5c-0.4,0.8-0.5,1.7-0.2,2.5
			c3.4,10.1,8.6,16.6,15.5,19.6l16.7,147c0.1,1,0.7,1.9,1.6,2.4c1,0.5,23.8,12.1,52.9,18.1c39.1,8,70.4,1.5,90.5-18.6
			c0.4-0.4,0.7-1,0.8-1.6l18.8-96.9c4.9,17.3,13.6,48.3,15.9,61c2.5,13.7-7.2,87.9-13.2,128.5h6.2c3.2-22.1,16.1-112.9,13.1-129.6
			c-3.4-18.3-18.9-71.6-19.6-73.9c-0.4-1.4-1.7-2.3-3.1-2.2c-1.4,0.1-2.6,1.1-2.9,2.5l-21.1,108.4c-23.5,22.9-58.7,21.5-84.2,16.3
			c-24.2-4.9-44.6-14.2-50-16.8l-16.7-147.2c-0.1-1.2-1-2.2-2.1-2.6c-5.1-1.6-9.2-6.1-12.3-13.4c9.5-3,12.2-7.4,14.8-11.7
			c2.2-3.7,4.3-7.1,11.2-10.6c3.4-1.7,7-3.4,10.5-5c16.6-7.7,33.7-15.6,30.8-32c-0.6-3.5-2.1-5.9-4.4-7c-4.3-2.2-9.8,0.3-16.7,3.5
			c-9.1,4.2-20.4,9.5-31.6,5.2c-1.8-0.7-3.6-1.4-5.5-2.2l6.5-49.8c7.8-5.8,16.4-10.2,20.3-12.1c6,7.4,28.8,32.1,62.9,32.1
			c34.2,0,57-24.9,62.9-32.2c9.9,4.2,51.5,22.7,66,41.7c26.2,34.4,31.8,119.6,34.5,160.5c0.6,8.6,1,15.3,1.5,19.5
			c2.5,21.1-23,136.7-27.8,158.7h6.3C938.1,577.5,962.7,465.5,960.1,443.6z"/>
	</g>
	<g>
		<path fill="#FABF62" d="M677,344c-9.2,1.2-15.5-1.5-19.9-5.9l0,0c-7.7,7.7-16.2,9.9-24.4,8.4c4.8,10.6,17.8,21.2,32.2,21.2
			c18.5,0,33.5-12.5,33.5-27.9c0-1-0.1-2-0.2-3C694.9,339.9,689.3,342.5,677,344z"/>
		<path fill="#1C3E58" d="M699.2,333.9c-1.1-0.4-2.3-0.1-3.1,0.6c-2.3,2.1-6.6,4.8-19.5,6.4l0,0c-7.4,0.9-13-0.7-17.4-5
			c-0.6-0.6-1.4-0.9-2.2-0.9c0,0,0,0,0,0c-0.8,0-1.6,0.3-2.2,0.9c-6.4,6.4-13.7,9-21.7,7.5c-1.1-0.2-2.3,0.2-3,1.1
			c-0.7,0.9-0.8,2.1-0.4,3.1c5,11.2,19,23,35,23c20.1,0,36.5-13.9,36.5-31c0-1.1-0.1-2.2-0.2-3.4
			C701.1,335.3,700.3,334.3,699.2,333.9z M677,344L677,344L677,344z M664.9,364.6c-10.8,0-21-6.9-26.6-14.7
			c6.8-0.2,13.2-2.8,18.9-7.7c5.4,4.2,12.2,5.8,20.3,4.8l0,0c7.8-1,13.5-2.4,17.7-4.5C693.5,354.9,680.5,364.6,664.9,364.6z"/>
	</g>
	<g>
		<path fill="#1C3E58" d="M1283.8,150.6c-4.9,0-8.9,4-8.9,8.9v17c0,4.9,4,8.9,8.9,8.9c4.9,0,8.9-4,8.9-8.9v-17
			C1292.6,154.6,1288.7,150.6,1283.8,150.6z M1286.5,176.5c0,1.5-1.2,2.7-2.7,2.7c-1.5,0-2.7-1.2-2.7-2.7v-17c0-1.5,1.2-2.7,2.7-2.7
			c1.5,0,2.7,1.2,2.7,2.7V176.5z"/>
	</g>
	<g>
		<path fill="#1C3E58" d="M842.2,113.3h-3.1c-1.7,0-3.1,1.4-3.1,3.1c0,1.7,1.4,3.1,3.1,3.1h3.1c0.2,0,0.3,0.1,0.5,0.3
			c0.2,0.3,0.3,0.6,0.2,1l-3.3,12.7c-0.2,1-1,1.6-1.8,1.6c-2.7,0-4.9,2.2-4.9,5v10.1c0,3.3-1.2,6.3-3.3,8.6
			c-6.5,7-23.5,23.3-39.9,23.9h-1.2c-16.3-0.6-33.3-16.9-39.9-23.9c-2.1-2.3-3.3-5.4-3.3-8.6V140c0-2.8-2.2-5-4.9-5
			c-0.8,0-1.6-0.7-1.8-1.6l-3.3-12.7c-0.1-0.4,0-0.7,0.2-1c0.1-0.2,0.3-0.3,0.5-0.3h3.1c1.7,0,3.1-1.4,3.1-3.1
			c0-1.7-1.4-3.1-3.1-3.1H736c-2.1,0-4,1-5.3,2.6c-1.4,1.8-1.8,4.1-1.3,6.3l3.3,12.7c0.8,3.2,3.4,5.6,6.5,6.1v9
			c0,4.8,1.8,9.4,5,12.8c8.8,9.4,26.2,25.3,44.2,25.8c0,0,0.1,0,0.1,0h1.3c0,0,0.1,0,0.1,0c18-0.6,35.4-16.4,44.2-25.8
			c3.2-3.4,5-8,5-12.8v-9c3.1-0.5,5.7-2.9,6.5-6.1l3.3-12.7c0.6-2.2,0.1-4.5-1.3-6.3C846.2,114.3,844.3,113.3,842.2,113.3z"/>
	</g>
	<g>
		<path fill="#4088DA" d="M828.7,28.7c-16.8-10.3-19.1-8.7-38-25.7c0,0-5.8,18.4-18.6,1.8c0,0-5.9,14.9-32.3,36.5
			c-26.4,21.6-15.8,68.1-7.4,77.9l0,0c0.5-1.6,1.8-2.9,3.6-2.9h3.1c0,0,0.7-43.3,26.8-45.2c13.2-0.6,22.5,8,22.5,8s2.4-9.5,5.8-11
			c3.4-1.5,8.7,6.6,8.7,6.6s2.7-7.5,8.1-5.9c7.8,2.2,14.9,9.4,20.8,19.1c6.9,11.4,7.3,28.5,7.3,28.5h3.1c1.5,0,2.7,0.9,3.3,2.2
			l0.4,0.1C846,118.7,869.6,53.8,828.7,28.7z"/>
		<path fill="#1C3E58" d="M830.3,26.1c-5.1-3.1-8.9-5.2-12.2-7c-7.5-4.1-12.4-6.7-25.4-18.4c-0.8-0.7-1.8-1-2.9-0.7
			c-1,0.3-1.8,1-2.1,2c-0.4,1.3-2.4,6-5.2,6.5c-2.1,0.4-4.9-1.7-8-5.7c-0.7-0.9-1.8-1.3-2.8-1.2c-1.1,0.1-2,0.9-2.4,1.9
			c-0.1,0.1-6.1,14.6-31.4,35.3c-10.1,8.3-16.2,20.9-17.6,36.6c-1.7,18.5,3.7,38.6,9.8,45.7c0.6,0.7,1.5,1.1,2.3,1.1
			c0.4,0,0.9-0.1,1.3-0.3c0.8-0.4,1.4-1.1,1.7-2c0.1-0.3,0.3-0.6,0.6-0.6h3.1c1.7,0,3-1.3,3.1-3c0-0.4,0.9-40.4,23.9-42.2
			c11.7-0.5,20.1,7.1,20.2,7.2c0.8,0.7,1.9,1,2.9,0.7c1-0.3,1.8-1.1,2.1-2.2c1-3.8,2.8-7.8,3.9-8.8c1.1,0.4,3.5,2.9,5.1,5.3
			c0.6,1,1.8,1.5,2.9,1.3c1.1-0.1,2.1-0.9,2.5-2c0,0,1.9-4.7,4.4-4c6.5,1.8,13.1,8,19,17.8c6.4,10.5,6.8,26.8,6.8,26.9
			c0,1.7,1.4,3,3.1,3h3.1c0.3,0,0.5,0.4,0.6,0.5c0.4,0.7,1,1.3,1.8,1.6l0.4,0.1c1.6,0.5,3.3-0.3,3.9-1.9c0.2-0.7,6.1-16.9,6.9-36.5
			C856.8,56.7,848,37,830.3,26.1z M844.4,113.7c-0.7-0.2-1.4-0.4-2.1-0.4H842c-0.4-5.6-2-17.8-7.5-27c-6.8-11.2-14.6-18.3-22.6-20.5
			c-4.1-1.1-7.2,0.9-9.3,3.4c-2.6-2.8-6.1-5.4-9.6-3.9c-2.9,1.3-4.9,5.3-6.2,8.7c-4.2-2.7-11.7-6.4-21-6c0,0-0.1,0-0.1,0
			c-24.6,1.9-28.8,34.9-29.5,45.2H736c-1.2,0-2.3,0.3-3.3,0.9c-4-7.5-7.7-23-6.4-38.1c0.9-9.7,4.2-23.2,15.4-32.4
			c18.8-15.4,27.4-27.5,31-33.5c3.7,3.6,7.3,5.1,10.9,4.5c4-0.7,6.6-3.9,8.2-6.6c11.2,9.8,16.2,12.5,23.5,16.4
			c3.2,1.8,6.9,3.7,11.9,6.8C859.7,51.3,848.5,99.5,844.4,113.7z"/>
	</g>
	<g>
		<path fill="#1C3E58" d="M105.5,374.1V223.9c0-1.7-1.4-3.1-3.1-3.1H0v6.1h99.4V371H0v6.1h102.5
			C104.2,377.1,105.5,375.8,105.5,374.1z"/>
	</g>
	<g>
		<path fill="#1C3E58" d="M83.1,234.9H70.9c-1.7,0-3.1,1.4-3.1,3.1v19.7c0,1.7,1.4,3.1,3.1,3.1h12.2c1.7,0,3.1-1.4,3.1-3.1V238
			C86.2,236.3,84.8,234.9,83.1,234.9z M80,254.6h-6v-13.5h6V254.6z"/>
	</g>
	<g>
		<path fill="#1C3E58" d="M83.1,337.2H70.9c-1.7,0-3.1,1.4-3.1,3.1v19.7c0,1.7,1.4,3.1,3.1,3.1h12.2c1.7,0,3.1-1.4,3.1-3.1v-19.7
			C86.2,338.6,84.8,337.2,83.1,337.2z M80,356.9h-6v-13.5h6V356.9z"/>
	</g>
	<g>
		<path fill="#1C3E58" d="M74,350.1v-6.8h3c1.7,0,3.1-1.4,3.1-3.1v-82.6c0-1.7-1.4-3.1-3.1-3.1h-3v-6.8c0-1.7-1.4-3.1-3.1-3.1H0v6.1
			h67.9v6.8c0,1.7,1.4,3.1,3.1,3.1h3v76.5h-3c-1.7,0-3.1,1.4-3.1,3.1v6.8H0v6.1h70.9C72.6,353.2,74,351.8,74,350.1z"/>
	</g>
	<g>
		<path fill="#1C3E58" d="M61.9,205.4H18.1c-1.7,0-3.1,1.4-3.1,3.1c0,1.7,1.4,3.1,3.1,3.1h43.8c1.7,0,3.1-1.4,3.1-3.1
			C65,206.8,63.6,205.4,61.9,205.4z"/>
	</g>
	<g>
		<path fill="#1C3E58" d="M146.5,186.6h-21.6c-1.7,0-3.1,1.4-3.1,3.1v21.6c0,1.7,1.4,3.1,3.1,3.1h21.6c1.7,0,3.1-1.4,3.1-3.1v-21.6
			C149.5,188,148.2,186.6,146.5,186.6z M143.4,208.3h-15.5v-15.5h15.5V208.3z"/>
	</g>
	<g>
		<path fill="#1C3E58" d="M94.2,371H69.5c-1.7,0-3.1,1.4-3.1,3.1v13.1c0,1.7,1.4,3.1,3.1,3.1h24.7c1.7,0,3.1-1.4,3.1-3.1v-13.1
			C97.3,372.4,95.9,371,94.2,371z M91.2,384.1H72.6v-7h18.6V384.1z"/>
	</g>
	<g>
		<circle fill="#FFFFFF" cx="51.3" cy="453.1" r="9.1"/>
		<path fill="#1C3E58" d="M51.3,440.9c-6.7,0-12.2,5.5-12.2,12.2c0,6.7,5.5,12.2,12.2,12.2s12.2-5.5,12.2-12.2
			C63.5,446.4,58,440.9,51.3,440.9z M51.3,459.2c-3.3,0-6.1-2.7-6.1-6.1c0-3.3,2.7-6.1,6.1-6.1s6.1,2.7,6.1,6.1
			C57.3,456.5,54.6,459.2,51.3,459.2z"/>
	</g>
	<g>
		<path fill="#1C3E58" d="M698.4,127.2c-9.1,0-16.5,7.4-16.5,16.5c0,9.1,7.4,16.5,16.5,16.5c9.1,0,16.5-7.4,16.5-16.5
			C714.9,134.6,707.5,127.2,698.4,127.2z M698.4,154.1c-5.7,0-10.4-4.7-10.4-10.4c0-5.7,4.7-10.4,10.4-10.4
			c5.7,0,10.4,4.7,10.4,10.4C708.8,149.5,704.1,154.1,698.4,154.1z"/>
	</g>
	<g>
		<path fill="#1C3E58" d="M242.2,304c-9.1,0-16.5,7.4-16.5,16.5c0,9.1,7.4,16.5,16.5,16.5c9.1,0,16.5-7.4,16.5-16.5
			C258.7,311.4,251.3,304,242.2,304z M242.2,330.9c-5.7,0-10.4-4.7-10.4-10.4c0-5.7,4.7-10.4,10.4-10.4c5.7,0,10.4,4.7,10.4,10.4
			C252.6,326.2,247.9,330.9,242.2,330.9z"/>
	</g>
	<g>
		<path fill="#1C3E58" d="M1151.6,154.9c-9.1,0-16.5,7.4-16.5,16.5c0,9.1,7.4,16.5,16.5,16.5c9.1,0,16.5-7.4,16.5-16.5
			C1168.2,162.3,1160.7,154.9,1151.6,154.9z M1151.6,181.8c-5.7,0-10.4-4.7-10.4-10.4c0-5.7,4.7-10.4,10.4-10.4
			c5.7,0,10.4,4.7,10.4,10.4C1162,177.2,1157.3,181.8,1151.6,181.8z"/>
	</g>
	<g>
		<path fill="#1C3E58" d="M1218.7,467.7c-7,0-12.8,5.7-12.8,12.8s5.7,12.8,12.8,12.8c7,0,12.8-5.7,12.8-12.8
			S1225.8,467.7,1218.7,467.7z M1218.7,487.1c-3.7,0-6.6-3-6.6-6.6s3-6.6,6.6-6.6c3.7,0,6.6,3,6.6,6.6S1222.4,487.1,1218.7,487.1z"
			/>
	</g>
	<g>
		<path fill="#1C3E58" d="M1061,122.7h-18.7c-1.7,0-3.1,1.4-3.1,3.1v18.7c0,1.7,1.4,3.1,3.1,3.1h18.7c1.7,0,3.1-1.4,3.1-3.1v-18.7
			C1064,124,1062.7,122.7,1061,122.7z M1057.9,141.4h-12.6v-12.6h12.6V141.4z"/>
	</g>
	<g>
		<path fill="#1C3E58" d="M587.1,257.7h-18.7c-1.7,0-3.1,1.4-3.1,3.1v18.7c0,1.7,1.4,3.1,3.1,3.1h18.7c1.7,0,3.1-1.4,3.1-3.1v-18.7
			C590.1,259.1,588.7,257.7,587.1,257.7z M584,276.5h-12.6v-12.6H584V276.5z"/>
	</g>
	<g>
		<path fill="#1C3E58" d="M1449.2,154.5h-18.7c-1.7,0-3.1,1.4-3.1,3.1v18.7c0,1.7,1.4,3.1,3.1,3.1h18.7c1.7,0,3.1-1.4,3.1-3.1v-18.7
			C1452.3,155.9,1450.9,154.5,1449.2,154.5z M1446.1,173.2h-12.6v-12.6h12.6V173.2z"/>
	</g>
	<g>
		<path fill="#FABF62" d="M1153.8,273.1L1153.8,273.1c0.2-11.8,9.8-21.3,21.7-21.3c11.9,0,21.5,9.5,21.6,21.3h0
			c0.2-11.8,9.8-21.3,21.6-21.3c11.9,0,21.5,9.5,21.6,21.3h0c0.2-11.8,9.8-21.3,21.6-21.3c11.9,0,21.5,9.5,21.6,21.3h0V174
			C1212,174,1153.8,218.4,1153.8,273.1z"/>
		<path fill="#1C3E58" d="M1283.8,170.9c-73.3,0-133,45.9-133,102.2c0,1.7,1.4,3.1,3.1,3.1c1.7,0,3-1.3,3.1-3
			c0.1-10.1,8.5-18.3,18.6-18.3c10.1,0,18.4,8.2,18.6,18.3c0,1.7,1.4,3,3.1,3c1.7,0,3-1.3,3.1-3c0.1-10.1,8.5-18.3,18.6-18.3
			c10.1,0,18.4,8.2,18.6,18.3c0,1.7,1.4,3,3.1,3s3-1.3,3.1-3c0.1-10.1,8.5-18.3,18.6-18.3c10.1,0,18.4,8.2,18.6,18.3
			c0,1.7,1.4,3,3.1,3c1.7,0,3.1-1.4,3.1-3.1V174C1286.8,172.3,1285.5,170.9,1283.8,170.9z M1280.7,257.2c-4.5-5.2-11.2-8.5-18.6-8.5
			c-9.3,0-17.4,5.2-21.7,12.9c-4.2-7.7-12.4-12.9-21.7-12.9c-9.3,0-17.4,5.2-21.7,12.9c-4.2-7.7-12.4-12.9-21.7-12.9
			c-6.2,0-11.9,2.3-16.3,6.2c11.1-43.6,61.1-76.8,121.5-77.9V257.2z"/>
	</g>
	<g>
		<path fill="#4088DA" d="M1198.8,265.2c3.2-7.9,11-13.4,20-13.4c11.9,0,21.5,9.5,21.6,21.3h0c0.2-11.8,9.8-21.3,21.6-21.3
			c11.9,0,21.5,9.5,21.6,21.3h0V174c-6.2,0-12.3,0.3-18.2,1C1245.3,179.5,1213.7,197.8,1198.8,265.2z"/>
		<path fill="#1C3E58" d="M1283.8,170.9c-6.2,0-12.4,0.3-18.5,1c-0.1,0-0.2,0-0.3,0.1c-13.6,3.1-26.4,10.8-37,22.5
			c-14.6,16.1-25.4,39.7-32.1,70.1c-0.3,1.6,0.6,3.1,2.1,3.6c1.5,0.5,3.1-0.3,3.7-1.8c2.9-7,9.6-11.5,17.2-11.5
			c10.1,0,18.4,8.2,18.6,18.3c0,1.7,1.4,3,3.1,3s3-1.3,3.1-3c0.1-10.1,8.5-18.3,18.6-18.3c10.1,0,18.4,8.2,18.6,18.3
			c0,1.7,1.4,3,3.1,3c1.7,0,3.1-1.4,3.1-3.1V174C1286.8,172.3,1285.5,170.9,1283.8,170.9z M1280.7,257.2c-4.5-5.2-11.2-8.5-18.6-8.5
			c-9.3,0-17.4,5.2-21.7,12.9c-4.2-7.7-12.4-12.9-21.7-12.9c-5,0-9.8,1.5-13.8,4.2c6.5-23.2,15.7-41.4,27.4-54.4
			c9.8-10.8,21.1-17.7,33.6-20.6c4.9-0.5,9.8-0.8,14.7-0.9V257.2z"/>
	</g>
	<g>
		<path fill="#FABF62" d="M1240.5,273.1c0.2-11.8,9.8-21.3,21.6-21.3c11.9,0,21.5,9.5,21.6,21.3h0V174
			C1283.8,174,1240.5,183.2,1240.5,273.1z"/>
		<path fill="#1C3E58" d="M1283.1,171c-0.5,0.1-12,2.7-23.4,17c-14.8,18.5-22.3,47.2-22.3,85.2c0,1.7,1.4,3.1,3,3.1
			c1.7,0,3.1-1.3,3.1-3c0.1-10.1,8.5-18.3,18.6-18.3c10.1,0,18.4,8.2,18.6,18.3c0,1.7,1.4,3,3.1,3c1.7,0,3.1-1.4,3.1-3.1V174
			c0-0.9-0.4-1.8-1.1-2.4C1285,171,1284,170.8,1283.1,171z M1280.7,257.2c-4.5-5.2-11.2-8.5-18.6-8.5c-7.1,0-13.5,3-18,7.9
			c2.3-34.6,11.9-53.9,20.1-64.4c6.3-8.1,12.7-12,16.6-13.8V257.2z"/>
	</g>
	<g>
		<path fill="#4088DA" d="M1283.8,174v99.2h0c0.2-11.8,9.8-21.3,21.6-21.3c11.9,0,21.5,9.5,21.6,21.3h0c0.2-11.8,9.8-21.3,21.6-21.3
			c11.9,0,21.5,9.5,21.6,21.3h0c0.2-11.8,9.8-21.3,21.6-21.3c11.9,0,21.5,9.5,21.6,21.3h0C1413.7,218.4,1355.5,174,1283.8,174z"/>
		<path fill="#1C3E58" d="M1283.8,170.9c-1.7,0-3.1,1.4-3.1,3.1v99.2c0,1.7,1.4,3.1,3.1,3.1c1.7,0,3-1.3,3.1-3
			c0.1-10.1,8.5-18.3,18.6-18.3c10.1,0,18.4,8.2,18.6,18.3c0,1.7,1.4,3,3.1,3s3-1.3,3.1-3c0.1-10.1,8.5-18.3,18.6-18.3
			s18.4,8.2,18.6,18.3c0,1.7,1.4,3,3.1,3c1.7,0,3-1.3,3.1-3c0.1-10.1,8.5-18.3,18.6-18.3c10.1,0,18.4,8.2,18.6,18.3
			c0,1.7,1.4,3,3.1,3h0c1.7,0,3.1-1.4,3.1-3.1C1416.8,216.8,1357.1,170.9,1283.8,170.9z M1413.7,273.1L1413.7,273.1L1413.7,273.1z
			 M1392,248.7c-9.3,0-17.4,5.2-21.7,12.9c-4.2-7.7-12.4-12.9-21.7-12.9s-17.4,5.2-21.7,12.9c-4.2-7.7-12.4-12.9-21.7-12.9
			c-7.4,0-14,3.3-18.6,8.5V177c60.4,1.1,110.4,34.3,121.5,77.9C1404,251.1,1398.3,248.7,1392,248.7z"/>
	</g>
	<g>
		<path fill="#FABF62" d="M1302,174.9c-6-0.6-12-1-18.2-1v99.2h0c0.2-11.8,9.8-21.3,21.6-21.3c11.9,0,21.5,9.5,21.6,21.3h0
			c0.2-11.8,9.8-21.3,21.6-21.3c9,0,16.8,5.5,20,13.4C1353.9,197.8,1322.2,179.5,1302,174.9z"/>
		<path fill="#1C3E58" d="M1339.6,194.4c-10.6-11.6-23.3-19.4-37-22.5c-0.1,0-0.2,0-0.3-0.1c-6.1-0.7-12.4-1-18.5-1
			c-1.7,0-3.1,1.4-3.1,3.1v99.2c0,1.7,1.4,3.1,3.1,3.1c1.7,0,3-1.3,3.1-3c0.1-10.1,8.5-18.3,18.6-18.3c10.1,0,18.4,8.2,18.6,18.3
			c0,1.7,1.4,3,3.1,3s3-1.3,3.1-3c0.1-10.1,8.5-18.3,18.6-18.3c7.5,0,14.3,4.5,17.2,11.5c0.6,1.5,2.2,2.2,3.7,1.8
			c1.5-0.5,2.4-2,2.1-3.6C1365,234.1,1354.2,210.5,1339.6,194.4z M1348.7,248.7c-9.3,0-17.4,5.2-21.7,12.9
			c-4.2-7.7-12.4-12.9-21.7-12.9c-7.4,0-14,3.3-18.6,8.5V177c4.9,0.1,9.8,0.4,14.7,0.9c12.5,2.9,23.8,9.8,33.6,20.6
			c11.8,13,21,31.2,27.4,54.4C1358.5,250.2,1353.8,248.7,1348.7,248.7z"/>
	</g>
	<g>
		<path fill="#4088DA" d="M1283.8,174v99.2h0c0.2-11.8,9.8-21.3,21.6-21.3c11.9,0,21.5,9.5,21.6,21.3
			C1327.1,183.2,1283.8,174,1283.8,174z"/>
		<path fill="#1C3E58" d="M1284.4,171c-0.9-0.2-1.8,0-2.6,0.6c-0.7,0.6-1.1,1.5-1.1,2.4v99.2c0,1.7,1.4,3.1,3.1,3.1
			c1.7,0,3-1.3,3.1-3c0.1-10.1,8.5-18.3,18.6-18.3c10.1,0,18.4,8.2,18.6,18.3c0,1.7,1.4,3,3.1,3c0,0,0,0,0,0c1.7,0,3-1.4,3-3.1
			c0-38-7.5-66.7-22.3-85.2C1296.4,173.7,1284.9,171.1,1284.4,171z M1283.8,273.1L1283.8,273.1L1283.8,273.1z M1305.4,248.7
			c-7.4,0-14,3.3-18.6,8.5v-78.8c3.9,1.8,10.2,5.8,16.6,13.8c8.2,10.4,17.7,29.8,20.1,64.4C1318.9,251.7,1312.5,248.7,1305.4,248.7z
			"/>
	</g>
	<g>
		<path fill="#1C3E58" d="M1544.7,315.5l-82.2-48.1c-0.9-0.6-2.1-0.6-3.1,0c-1,0.5-1.5,1.6-1.5,2.7v93.5c0,1.7,1.4,3.1,3.1,3.1H1582
			c1.7,0,3.1-1.4,3.1-3.1c0-1.7-1.4-3.1-3.1-3.1h-118v-85.1l79.4,46.5c1.1,0.6,2.4,0.5,3.4-0.2l50.7-38.4v-7.7L1544.7,315.5z"/>
	</g>
	<g>
		<path fill="#1C3E58" d="M1506.5,314.6l-47.8,46.8c-1.2,1.2-1.2,3.1,0,4.3c0.6,0.6,1.4,0.9,2.2,0.9c0.8,0,1.5-0.3,2.1-0.9
			l47.8-46.8c1.2-1.2,1.2-3.1,0-4.3C1509.7,313.5,1507.7,313.4,1506.5,314.6z"/>
	</g>
	<g>
		<path fill="#1C3E58" d="M1561.5,344.8h-62.1c-1.7,0-3.1,1.4-3.1,3.1c0,1.7,1.4,3.1,3.1,3.1h62.1c1.7,0,3.1-1.4,3.1-3.1
			C1564.5,346.2,1563.2,344.8,1561.5,344.8z"/>
	</g>
	<g>
		<path fill="#1C3E58" d="M1490.9,179.2c-7.2,0-13,5.8-13,13v89.5c0,1.7,1.4,3.1,3.1,3.1c1.7,0,3.1-1.4,3.1-3.1v-89.5
			c0-3.8,3.1-6.9,6.9-6.9h106.5v-6.1H1490.9z"/>
	</g>
	<g>
		<path fill="#1C3E58" d="M1568.1,194.6h-59.7c-1.7,0-3.1,1.4-3.1,3.1c0,1.7,1.4,3.1,3.1,3.1h59.7c1.7,0,3.1-1.4,3.1-3.1
			C1571.1,196,1569.8,194.6,1568.1,194.6z"/>
	</g>
	<g>
		<path fill="#1C3E58" d="M1568.1,203.5h-59.7c-1.7,0-3.1,1.4-3.1,3.1c0,1.7,1.4,3.1,3.1,3.1h59.7c1.7,0,3.1-1.4,3.1-3.1
			C1571.1,204.9,1569.8,203.5,1568.1,203.5z"/>
	</g>
	<g>
		<path fill="#FABF62" d="M1547.4,226.8H1530c-9.6,0-17.4,7.8-17.4,17.4v0c0,7.1,4.3,13.3,10.5,16v17.5h31.3v-17.5
			c6.2-2.7,10.5-8.8,10.5-16v0C1564.8,234.6,1557,226.8,1547.4,226.8z"/>
		<path fill="#1C3E58" d="M1547.4,223.7H1530c-11.3,0-20.5,9.2-20.5,20.5c0,7.5,4,14.3,10.5,17.9v15.6c0,1.7,1.4,3.1,3.1,3.1h31.3
			c1.7,0,3.1-1.4,3.1-3.1V262c6.4-3.6,10.5-10.4,10.5-17.9C1567.9,232.9,1558.7,223.7,1547.4,223.7z M1553.1,257.3
			c-1.1,0.5-1.8,1.6-1.8,2.8v14.4h-25.2v-14.4c0-1.2-0.7-2.3-1.8-2.8c-5.2-2.3-8.6-7.4-8.6-13.2c0-7.9,6.4-14.4,14.4-14.4h17.4
			c7.9,0,14.4,6.4,14.4,14.4C1561.8,249.9,1558.4,255.1,1553.1,257.3z"/>
	</g>
	<g>
		<g>
			<path fill="#1C3E58" d="M1532.3,245.6l-7.2-5.2c-1.4-1-3.3-0.7-4.3,0.7c-1,1.4-0.7,3.3,0.7,4.3l7.2,5.2c0.5,0.4,1.2,0.6,1.8,0.6
				c0.9,0,1.9-0.4,2.5-1.3C1534,248.6,1533.7,246.6,1532.3,245.6z"/>
		</g>
		<g>
			<path fill="#1C3E58" d="M1552.3,240.4l-7.2,5.2c-1.4,1-1.7,2.9-0.7,4.3c0.6,0.8,1.5,1.3,2.5,1.3c0.6,0,1.3-0.2,1.8-0.6l7.2-5.2
				c1.4-1,1.7-2.9,0.7-4.3C1555.6,239.7,1553.7,239.4,1552.3,240.4z"/>
		</g>
	</g>
	<g>
		<path fill="#1C3E58" d="M1479.2,253.4l-20.1,14.1c-1.4,1-1.7,2.9-0.7,4.3c0.6,0.8,1.5,1.3,2.5,1.3c0.6,0,1.2-0.2,1.8-0.6
			l20.1-14.1c1.4-1,1.7-2.9,0.7-4.3C1482.5,252.7,1480.6,252.4,1479.2,253.4z"/>
	</g>
	<g>
		<path fill="#1C3E58" d="M1426.9,281.6c-1.7,0-3.1,1.4-3.1,3.1v43.8c0,1.7,1.4,3.1,3.1,3.1c1.7,0,3.1-1.4,3.1-3.1v-43.8
			C1430,282.9,1428.6,281.6,1426.9,281.6z"/>
	</g>
	<g>
		<path fill="#1C3E58" d="M1283.8,274.3c-1.7,0-3.1,1.4-3.1,3.1v132.9c0,1.7,1.4,3.1,3.1,3.1c1.7,0,3.1-1.4,3.1-3.1V277.3
			C1286.8,275.6,1285.5,274.3,1283.8,274.3z"/>
	</g>
	<g>
		<path fill="#1C3E58" d="M1292.1,274.3c-1.7,0-3.1,1.4-3.1,3.1v132.9c0,1.7,1.4,3.1,3.1,3.1c1.7,0,3.1-1.4,3.1-3.1V277.3
			C1295.1,275.6,1293.8,274.3,1292.1,274.3z"/>
	</g>
	<g>
		<path fill="#1C3E58" d="M47.3,297.6c0-20.2-16.4-36.6-36.6-36.6c-3.6,0-7.2,0.5-10.7,1.6v6.5c3.4-1.3,7-1.9,10.7-1.9
			c16.8,0,30.5,13.7,30.5,30.5c0,16.8-13.7,30.5-30.5,30.5c-3.6,0-7.3-0.7-10.7-1.9v6.5c3.4,1,7,1.6,10.7,1.6
			C30.9,334.2,47.3,317.8,47.3,297.6z"/>
	</g>
	<g>
		<path fill="#1C3E58" d="M50.6,326.6l-37.4-29.1l34.9-27.6c1.3-1.1,1.5-3,0.5-4.3c-1.1-1.3-3-1.5-4.3-0.5L6.4,295.2
			c-0.7,0.6-1.2,1.5-1.2,2.4c0,0.9,0.4,1.8,1.2,2.4l40.4,31.5c0.6,0.4,1.2,0.6,1.9,0.6c0.9,0,1.8-0.4,2.4-1.2
			C52.2,329.6,51.9,327.6,50.6,326.6z"/>
	</g>
	<g>
		<path fill="#1C3E58" d="M236.6,508.7c-1.6-0.6-3.3,0.3-3.9,1.9c-8.7,25.5-32.7,42.7-59.7,42.7c-34.8,0-63.1-28.3-63.1-63.1
			c0-34.8,28.3-63.1,63.1-63.1c5.5,0,11,0.7,16.2,2.1c1.6,0.4,3.3-0.5,3.7-2.2c0.4-1.6-0.5-3.3-2.2-3.7c-5.8-1.5-11.8-2.3-17.8-2.3
			c-38.2,0-69.2,31.1-69.2,69.2c0,38.2,31.1,69.2,69.2,69.2c29.6,0,55.9-18.8,65.5-46.8C239.1,510.9,238.2,509.2,236.6,508.7z"/>
	</g>
	<g>
		<path fill="#1C3E58" d="M182.6,536.8c-3.1,0.6-6.4,1-9.6,1c-26.3,0-47.6-21.4-47.6-47.6c0-16.9,9.1-32.8,23.8-41.3
			c7.2-4.2,15.4-6.4,23.8-6.4c1.7,0,3.1-1.4,3.1-3.1c0-1.7-1.4-3.1-3.1-3.1c-9.5,0-18.8,2.5-26.9,7.2c-16.6,9.6-26.9,27.4-26.9,46.6
			c0,29.6,24.1,53.8,53.8,53.8c3.6,0,7.3-0.4,10.8-1.1c1.7-0.3,2.7-2,2.4-3.6C185.9,537.5,184.3,536.5,182.6,536.8z"/>
	</g>
	<g>
		<path fill="#1C3E58" d="M182.9,459.7c-8.3,0-15,6.7-15,15s6.7,15,15,15c8.3,0,15-6.7,15-15S191.1,459.7,182.9,459.7z M182.9,483.6
			c-4.9,0-8.9-4-8.9-8.9s4-8.9,8.9-8.9c4.9,0,8.9,4,8.9,8.9S187.8,483.6,182.9,483.6z"/>
	</g>
	<g>
		<path fill="#1C3E58" d="M51.3,425.9c-15,0-27.2,12.2-27.2,27.2c0,1.7,1.4,3.1,3.1,3.1s3.1-1.4,3.1-3.1c0-11.6,9.5-21.1,21.1-21.1
			c1.7,0,3.1-1.4,3.1-3.1C54.3,427.3,53,425.9,51.3,425.9z"/>
	</g>
	<g>
		<path fill="#1C3E58" d="M112.2,559.4H93.4c-1.7,0-3.1,1.4-3.1,3.1v18.8c0,1.7,1.4,3.1,3.1,3.1h18.8c1.7,0,3.1-1.4,3.1-3.1v-18.8
			C115.3,560.8,113.9,559.4,112.2,559.4z M109.1,578.2H96.5v-12.7h12.7V578.2z"/>
	</g>
	<g>
		<path fill="#1C3E58" d="M152.8,568.7c-6.3,0-11.4,5.1-11.4,11.4c0,6.3,5.1,11.4,11.4,11.4c6.3,0,11.4-5.1,11.4-11.4
			C164.1,573.8,159,568.7,152.8,568.7z M152.8,585.2c-2.9,0-5.2-2.3-5.2-5.2c0-2.9,2.3-5.2,5.2-5.2c2.9,0,5.2,2.3,5.2,5.2
			C158,582.9,155.7,585.2,152.8,585.2z"/>
	</g>
	<g>
		<path fill="#1C3E58" d="M153.1,409.4c-0.4-0.7-1-1.3-1.7-1.6c-0.8-0.3-1.6-0.2-2.3,0.1l-27.3,13.2c-1.5,0.7-2.2,2.6-1.4,4.1
			l7.5,15.5c0.4,0.9,1.2,1.5,2.1,1.7c0.2,0,0.4,0.1,0.6,0.1c0.7,0,1.4-0.3,2-0.7c7.5-6.3,16.4-10.8,25.8-13c0.9-0.2,1.7-0.8,2.1-1.7
			c0.4-0.8,0.4-1.8,0-2.6L153.1,409.4z M131.6,434.7l-4.5-9.3l21.8-10.5l4.3,9C145.4,426.1,138.1,429.8,131.6,434.7z"/>
	</g>
	<g>
		<path fill="#1C3E58" d="M168.8,353.8c-1.7,0.3-2.8,1.8-2.6,3.5c0.6,4.1,0,9.9-3.5,14.2c-3.2,3.8-8.2,5.9-15,6.1
			c-13.9,0.5-22.6,4.3-25.9,11.3c-5.3,11.3,5.9,25.9,6.4,26.5c0.6,0.8,1.5,1.2,2.4,1.2c0.7,0,1.3-0.2,1.9-0.6c1.3-1,1.6-3,0.5-4.3
			c-2.6-3.4-8.8-13.6-5.7-20.1c2.2-4.7,9.3-7.4,20.6-7.8c8.6-0.3,15.2-3.1,19.6-8.3c6.1-7.3,5.2-16.4,4.8-19
			C172,354.7,170.4,353.6,168.8,353.8z"/>
	</g>
	<g>
		<path fill="#FABF62" d="M194.4,318.6c0,0-11.4,2.1-16.6,1.5l1-23.3l-14,17.7l-12.6-14.6l1.4,20.1l-23.6-3.5l17.8,13.3L135,350.1
			c0,0,25.4-14.7,21.3,11.6c0,0,14.9-27.4,26.5,1.2c0,0,0.8-9.6-0.8-16.4c0,0,24.2-2,31.5-6.5C213.5,340,181.3,335.7,194.4,318.6z"
			/>
		<path fill="#1C3E58" d="M213.9,336.9c-6.4-0.9-17.2-4.1-19.2-9c-0.3-0.7-1.2-3,2.2-7.4c0.8-1,0.8-2.4,0.2-3.5
			c-0.7-1.1-1.9-1.6-3.2-1.4c-2.4,0.5-8.5,1.4-12.9,1.6l0.9-20.2c0.1-1.3-0.7-2.5-2-3c-1.2-0.5-2.6-0.1-3.5,1l-11.7,14.8l-10.2-11.8
			c-0.9-1-2.3-1.3-3.5-0.8c-1.2,0.5-2,1.7-1.9,3l1.1,16.3l-19.8-3c-1.4-0.2-2.7,0.6-3.3,1.9c-0.5,1.3-0.1,2.8,1,3.6l15.6,11.6
			l-11.3,17.8c-0.8,1.2-0.6,2.7,0.4,3.8c1,1,2.5,1.2,3.7,0.5c3.4-2,11.5-5.2,15-2.9c2.1,1.4,2.7,5.5,1.8,11.3
			c-0.2,1.5,0.6,2.9,2,3.4c1.4,0.5,3-0.1,3.7-1.4c1.5-2.7,6.7-10.2,11.5-10.2c0.1,0,0.2,0,0.3,0c3.2,0.2,6.4,4.1,9.3,11.1
			c0.5,1.2,1.6,1.9,2.8,1.9c0.2,0,0.3,0,0.5,0c1.4-0.2,2.5-1.4,2.6-2.8c0-0.3,0.6-7.4-0.3-14c7.2-0.7,23.2-2.7,29.5-6.6
			c1.1-0.7,1.7-2,1.4-3.2C216.3,338.1,215.2,337.1,213.9,336.9z M181.8,343.4c-0.9,0.1-1.7,0.5-2.2,1.3c-0.5,0.7-0.7,1.6-0.5,2.5
			c0.3,1.3,0.6,2.8,0.7,4.3c-2.6-2.9-5.5-4.5-8.7-4.7c-4.6-0.3-8.6,2.5-11.6,5.6c-0.6-3.4-2.2-5.9-4.5-7.6c-2-1.4-4.4-1.9-6.8-1.9
			c-1.8,0-3.7,0.3-5.5,0.8l7.7-12.2c0.9-1.4,0.5-3.1-0.8-4.1l-8.1-6.1l11.6,1.7c0.9,0.1,1.8-0.2,2.5-0.8c0.7-0.6,1-1.5,1-2.5
			l-0.8-10.9l6.6,7.7c0.6,0.7,1.4,1.1,2.4,1.1c0.9,0,1.8-0.4,2.3-1.2l8.2-10.3l-0.6,13.9c-0.1,1.6,1.1,3,2.7,3.2
			c3,0.3,7.6-0.1,11.3-0.6c-0.8,2.7-0.8,5.2,0.2,7.7c2.1,5.1,8,8.3,13.5,10.2C195.1,342,186,343,181.8,343.4z"/>
	</g>
	<g>
		<path fill="#1C3E58" d="M620.7,186.6H383.2c-14.2,0-25.7,11.5-25.7,25.7v245.5c0,14.2,11.5,25.7,25.7,25.7H489
			c1.7,0,3.1-1.4,3.1-3.1c0-1.7-1.4-3.1-3.1-3.1H383.2c-10.8,0-19.5-8.8-19.5-19.5V212.3c0-10.8,8.8-19.5,19.5-19.5h237.5
			c1.7,0,3.1-1.4,3.1-3.1C623.7,188,622.4,186.6,620.7,186.6z"/>
	</g>
	<g>
		<path fill="#25CE9E" d="M360.5,457.8V338.3c-24.8-19.3-35.6-40.9-35.6-40.9s-28.4,56.9-99,68.4c0,0-18.7,149,99,187
			c42.5-13.7,67.2-41.9,81.4-72.3h-23.2C370.7,480.4,360.5,470.3,360.5,457.8z"/>
		<path fill="#1C3E58" d="M406.3,477.4h-23.2c-10.8,0-19.5-8.8-19.5-19.5V338.3c0-0.9-0.4-1.8-1.2-2.4
			c-23.9-18.6-34.7-39.7-34.8-39.9c-0.5-1-1.6-1.7-2.7-1.7s-2.2,0.7-2.7,1.7c-0.3,0.6-28.5,55.7-96.8,66.8c-1.3,0.2-2.4,1.3-2.5,2.6
			c-0.2,1.5-4.6,38.3,5.4,80.3c5.9,24.8,15.7,46.2,29.1,63.7c16.8,21.9,39.2,37.5,66.6,46.3c0.3,0.1,0.6,0.1,0.9,0.1
			c0.3,0,0.6,0,0.9-0.1c38-12.3,66-37.2,83.2-74c0.4-0.9,0.4-2.1-0.2-2.9C408.3,477.9,407.4,477.4,406.3,477.4z M324.9,549.6
			c-47.1-15.6-77.6-50.9-90.6-105.1c-8.5-35.2-6.4-67.5-5.6-76.1c36-6.4,60.8-24.7,75.3-39c10.7-10.5,17.4-20.3,20.9-25.9
			c4.6,7.4,15,22.3,32.6,36.2v118.1c0,14.2,11.5,25.7,25.7,25.7h18.3C385,516,359.2,538.2,324.9,549.6z"/>
	</g>
	<g>
		<polygon fill="#2B71B5" points="219,288 360.5,288 360.5,269.5 211.9,269.5 		"/>
		<path fill="#1C3E58" d="M360.5,266.4H211.9c-1,0-1.9,0.5-2.5,1.3c-0.6,0.8-0.7,1.9-0.3,2.8l7,18.5c0.5,1.2,1.6,2,2.9,2h141.6
			c1.7,0,3.1-1.4,3.1-3.1v-18.5C363.6,267.8,362.2,266.4,360.5,266.4z M357.5,284.9H221.1l-4.7-12.4h141.1V284.9z"/>
	</g>
	<g>
		<polygon fill="#4088DA" points="218.4,254.6 251.5,254.6 247,238 279.9,238 297.5,255.6 360.5,255.6 360.5,218.9 177.9,218.9 		
			"/>
		<path fill="#1C3E58" d="M360.5,215.8H177.9c-1.3,0-2.4,0.8-2.9,2s-0.1,2.5,0.8,3.4l40.5,35.7c0.6,0.5,1.3,0.8,2,0.8h33.1
			c1,0,1.9-0.4,2.4-1.2c0.6-0.8,0.8-1.7,0.5-2.7l-3.4-12.7h27.6l16.7,16.7c0.6,0.6,1.4,0.9,2.2,0.9h63.1c1.7,0,3.1-1.4,3.1-3.1
			v-36.7C363.6,217.2,362.2,215.8,360.5,215.8z M357.5,252.5h-58.7l-16.7-16.7c-0.6-0.6-1.4-0.9-2.2-0.9H247c-1,0-1.9,0.4-2.4,1.2
			c-0.6,0.8-0.8,1.7-0.5,2.7l3.4,12.7h-28L186,222h171.4V252.5z"/>
	</g>
	<g>
		<path fill="#1C3E58" d="M215.4,275.7h-22.9v-29.8h12.6c1.7,0,3.1-1.4,3.1-3.1c0-1.7-1.4-3.1-3.1-3.1h-15.6c-1.7,0-3.1,1.4-3.1,3.1
			v35.9c0,1.7,1.4,3.1,3.1,3.1h26c1.7,0,3.1-1.4,3.1-3.1C218.5,277,217.1,275.7,215.4,275.7z"/>
	</g>
	<g>
		<path fill="#1C3E58" d="M189.5,246.3h-21.9c-1.7,0-3.1,1.4-3.1,3.1v18.5c0,1.7,1.4,3.1,3.1,3.1h21.9c1.7,0,3.1-1.4,3.1-3.1v-18.5
			C192.5,247.7,191.2,246.3,189.5,246.3z M186.4,264.9h-15.8v-12.4h15.8V264.9z"/>
	</g>
	<g>
		<polygon fill="#FFFFFF" points="319.8,456.5 330.2,456.5 338.1,384.5 310.3,384.5 		"/>
		<path fill="#1C3E58" d="M338.1,381.5h-27.7c-0.9,0-1.7,0.4-2.3,1c-0.6,0.7-0.8,1.5-0.7,2.4l9.5,71.9c0.2,1.5,1.5,2.7,3,2.7h10.4
			c1.6,0,2.9-1.2,3-2.7l7.9-71.9c0.1-0.9-0.2-1.7-0.8-2.4C339.8,381.9,338.9,381.5,338.1,381.5z M327.5,453.4h-4.9l-8.7-65.8h20.8
			L327.5,453.4z"/>
	</g>
	<g>
		<circle fill="#FFFFFF" cx="324.2" cy="478.3" r="8.3"/>
		<path fill="#1C3E58" d="M324.2,466.9c-6.3,0-11.4,5.1-11.4,11.4c0,6.3,5.1,11.4,11.4,11.4c6.3,0,11.4-5.1,11.4-11.4
			C335.6,472,330.5,466.9,324.2,466.9z M324.2,483.6c-2.9,0-5.3-2.4-5.3-5.3s2.4-5.3,5.3-5.3c2.9,0,5.3,2.4,5.3,5.3
			S327.1,483.6,324.2,483.6z"/>
	</g>
	<g>
		<path fill="#1C3E58" d="M376.7,496c-1.4-1-3.3-0.7-4.3,0.6c-20.5,27.5-43.4,33.9-47.9,34.9c-35.3-14.5-59.5-44.1-71.9-87.9
			c-7.8-27.3-8.2-52.1-8.2-60.1c27-2.2,47.1-15.8,59.3-27c13.6-12.5,20.5-24.6,20.8-25.1c0.8-1.5,0.3-3.3-1.2-4.2
			c-1.5-0.8-3.3-0.3-4.2,1.2c-0.3,0.5-26.7,46.7-77.8,49.2c-1.6,0.1-2.8,1.3-2.9,2.9c-0.1,1.2-1.4,30.5,8.3,64.6
			c12.9,45.5,39.3,77.5,76.4,92.4c0.4,0.1,0.8,0.2,1.1,0.2c0.2,0,0.3,0,0.5,0c1.1-0.2,28.3-4.8,52.6-37.4
			C378.3,498.9,378.1,497,376.7,496z"/>
	</g>
	<g>
		<path fill="#1C3E58" d="M262.7,399.2c-0.2-1.7-1.7-2.9-3.4-2.7c-1.7,0.2-2.9,1.7-2.7,3.4c0.2,2.1,5.3,50.9,20.8,71.9
			c0.6,0.8,1.5,1.2,2.5,1.2c0.6,0,1.3-0.2,1.8-0.6c1.4-1,1.7-2.9,0.7-4.3C267.9,448.4,262.8,399.7,262.7,399.2z"/>
	</g>
	<g>
		<path fill="#FABF62" d="M416.6,537.2c-23,0-41.7,18.7-41.7,41.7c0,9,2.8,17.2,7.6,24h68.2c4.8-6.8,7.6-15.1,7.6-24
			C458.3,555.9,439.6,537.2,416.6,537.2z"/>
		<path fill="#1C3E58" d="M416.6,534.1c-24.7,0-44.8,20.1-44.8,44.8c0,8.6,2.5,16.9,7,24h7.5c-5.4-6.8-8.4-15.3-8.4-24
			c0-21.3,17.3-38.7,38.7-38.7c21.3,0,38.7,17.3,38.7,38.7c0,8.8-3,17.2-8.4,24h7.5c4.6-7.1,7-15.4,7-24
			C461.4,554.2,441.3,534.1,416.6,534.1z"/>
	</g>
	<g>
		<path fill="#1C3E58" d="M414.6,517.8c-4.2,0-8.4,0.4-12.5,1.2c-1.7,0.3-2.8,1.9-2.4,3.6c0.3,1.7,1.9,2.8,3.6,2.4
			c3.7-0.7,7.5-1.1,11.4-1.1c18.8,0,36.4,8.6,47.1,23c0.6,0.8,1.5,1.2,2.5,1.2c0.6,0,1.3-0.2,1.8-0.6c1.4-1,1.6-2.9,0.6-4.3
			C454.8,527.3,435.4,517.8,414.6,517.8z"/>
	</g>
	<g>
		<path fill="#FABF62" d="M511.4,243.1h-28.1l-11,11h-57.9v67.1c0,8.4,6.8,15.2,15.2,15.2h98.2c9.1,0,16.4-7.4,16.4-16.4v-64.3
			l-20.9-0.5L511.4,243.1z"/>
		<path fill="#1C3E58" d="M544.3,252.5l-19.6-0.5l-11.1-11.1c-0.6-0.6-1.4-0.9-2.2-0.9h-28.1c-0.8,0-1.6,0.3-2.2,0.9L471.1,251
			h-56.6c-1.7,0-3.1,1.4-3.1,3.1v67.1c0,10.1,8.2,18.2,18.2,18.2h98.2c10.8,0,19.5-8.7,19.5-19.5v-64.3
			C547.3,253.9,546,252.5,544.3,252.5z M541.2,319.9c0,7.4-6,13.4-13.4,13.4h-98.2c-6.7,0-12.1-5.4-12.1-12.1v-64.1h54.8
			c0.8,0,1.6-0.3,2.2-0.9l10.1-10.1h25.6l11.1,11.1c0.6,0.6,1.3,0.9,2.1,0.9l17.9,0.4V319.9z"/>
	</g>
	<g>
		<path fill="#1C3E58" d="M531,215.8h-98.3c-1.7,0-3.1,1.4-3.1,3.1V254c0,1.7,1.4,3.1,3.1,3.1c1.7,0,3.1-1.4,3.1-3.1V222H528v33.3
			c0,1.7,1.4,3.1,3.1,3.1c1.7,0,3.1-1.4,3.1-3.1v-36.3C534.1,217.2,532.7,215.8,531,215.8z"/>
	</g>
	<g>
		<path fill="#1C3E58" d="M565.6,202.6H392c-1.7,0-3.1,1.4-3.1,3.1c0,1.7,1.4,3.1,3.1,3.1h173.6c1.7,0,3.1-1.4,3.1-3.1
			C568.7,204,567.3,202.6,565.6,202.6z"/>
	</g>
	<g>
		<path fill="#1C3E58" d="M478.8,322.3h-40.5c-5,0-9-4-9-9v-34.6c0-1.7-1.4-3.1-3.1-3.1c-1.7,0-3.1,1.4-3.1,3.1v34.6
			c0,8.3,6.8,15.1,15.1,15.1h40.5c1.7,0,3.1-1.4,3.1-3.1C481.9,323.7,480.5,322.3,478.8,322.3z"/>
	</g>
	<g>
		<circle fill="#FFFFFF" cx="514" cy="282.5" r="12.3"/>
		<path fill="#1C3E58" d="M514,267.1c-8.5,0-15.4,6.9-15.4,15.4c0,8.5,6.9,15.4,15.4,15.4c8.5,0,15.4-6.9,15.4-15.4
			C529.4,274,522.5,267.1,514,267.1z M514,291.7c-5.1,0-9.2-4.1-9.2-9.2c0-5.1,4.1-9.2,9.2-9.2c5.1,0,9.2,4.1,9.2,9.2
			C523.3,287.5,519.1,291.7,514,291.7z"/>
	</g>
	<g>
		<g>
			<path fill="#1C3E58" d="M423.4,572.6c-9.5,1.1-13.7,0.4-14.2-2.2c-0.2-1.1,0.2-2.4,1.1-3.5c2.3-2.8,4.8-4.2,7.3-4.3
				c4.3-0.1,7.8,3.6,7.8,3.7c1.1,1.2,3.1,1.3,4.3,0.2c1.2-1.1,1.3-3.1,0.2-4.3c-0.2-0.2-5.4-5.8-12.4-5.6c-4.4,0.1-8.4,2.2-11.9,6.4
				c-2.1,2.5-3,5.6-2.4,8.6c1.7,9.3,14.2,7.9,20.9,7.1c2.9-0.3,4.6,2.2,4.9,4.7c0.4,3.5-1.7,7.8-8.8,8.6c-9.6,1.1-12.5-5-12.6-5.2
				c-0.7-1.6-2.5-2.3-4-1.6c-1.6,0.7-2.3,2.5-1.6,4c0.2,0.4,4,9,15.8,9c1,0,2-0.1,3.1-0.2c10.8-1.3,14.9-8.9,14.2-15.4
				C434.3,576.3,429.3,572,423.4,572.6z"/>
		</g>
		<g>
			<path fill="#1C3E58" d="M419.7,551.2c0-1.7-1.4-3.1-3.1-3.1c-1.7,0-3.1,1.4-3.1,3.1v50.1c0,0.6,0.2,1.1,0.5,1.6h5.2
				c0.3-0.5,0.5-1,0.5-1.6V551.2z"/>
		</g>
	</g>
	<g>
		<g>
			<path fill="#1C3E58" d="M1267.2,334.8c-9.5,1.1-13.7,0.4-14.2-2.2c-0.2-1.1,0.2-2.4,1.1-3.5c2.3-2.8,4.8-4.2,7.3-4.3
				c0.1,0,0.1,0,0.2,0c4.2,0,7.6,3.6,7.7,3.7c1.1,1.2,3.1,1.3,4.3,0.2c1.2-1.1,1.3-3.1,0.2-4.3c-0.2-0.2-5.4-5.8-12.4-5.6
				c-4.4,0.1-8.4,2.2-11.9,6.4c-2.1,2.5-3,5.6-2.4,8.6c1.7,9.3,14.2,7.9,20.9,7.1c3-0.3,4.6,2.2,4.9,4.7c0.4,3.5-1.7,7.8-8.8,8.6
				c-9.6,1.1-12.5-5-12.6-5.2c-0.7-1.6-2.5-2.3-4-1.6c-1.6,0.7-2.3,2.5-1.6,4c0.2,0.4,4,9,15.8,9c1,0,2-0.1,3.1-0.2
				c10.8-1.3,14.9-8.9,14.2-15.4C1278.2,338.5,1273.2,334.2,1267.2,334.8z"/>
		</g>
		<g>
			<path fill="#1C3E58" d="M1260.4,354.3c-1.7,0-3.1,1.4-3.1,3.1v6.1c0,1.7,1.4,3.1,3.1,3.1c1.7,0,3.1-1.4,3.1-3.1v-6.1
				C1263.5,355.7,1262.1,354.3,1260.4,354.3z"/>
		</g>
		<g>
			<path fill="#1C3E58" d="M1260.4,310.4c-1.7,0-3.1,1.4-3.1,3.1v14.3c0,1.7,1.4,3.1,3.1,3.1c1.7,0,3.1-1.4,3.1-3.1v-14.3
				C1263.5,311.7,1262.1,310.4,1260.4,310.4z"/>
		</g>
	</g>
	<g>
		<circle fill="#FABF62" cx="547.6" cy="374.8" r="18.4"/>
		<path fill="#1C3E58" d="M547.6,353.4c-11.8,0-21.4,9.6-21.4,21.4c0,11.8,9.6,21.4,21.4,21.4c11.8,0,21.4-9.6,21.4-21.4
			C569,363,559.4,353.4,547.6,353.4z M547.6,390.1c-8.4,0-15.3-6.9-15.3-15.3c0-8.4,6.9-15.3,15.3-15.3c8.4,0,15.3,6.9,15.3,15.3
			C562.9,383.2,556.1,390.1,547.6,390.1z"/>
	</g>
	<g>
		<circle fill="#FABF62" cx="577.7" cy="418.2" r="34.4"/>
		<path fill="#1C3E58" d="M577.7,380.7c-20.6,0-37.4,16.8-37.4,37.4s16.8,37.4,37.4,37.4s37.4-16.8,37.4-37.4
			S598.3,380.7,577.7,380.7z M577.7,449.5c-17.3,0-31.3-14-31.3-31.3s14-31.3,31.3-31.3s31.3,14,31.3,31.3S594.9,449.5,577.7,449.5z
			"/>
	</g>
	<g>
		<path fill="#1C3E58" d="M527.7,386l-13.2,8.1l-94.3-18.9c-1.7-0.3-3.3,0.7-3.6,2.4c-0.3,1.7,0.7,3.3,2.4,3.6l95.5,19.1
			c0.2,0,0.4,0.1,0.6,0.1c0.6,0,1.1-0.2,1.6-0.5l14.2-8.7c1.4-0.9,1.9-2.8,1-4.2C531,385.5,529.1,385.1,527.7,386z"/>
	</g>
	<g>
		<path fill="#1C3E58" d="M542.2,396.1l-28.6,25.8l-104.4-3.3c-1.7,0-3.1,1.3-3.2,3c-0.1,1.7,1.3,3.1,3,3.2l105.6,3.3
			c0,0,0.1,0,0.1,0c0.8,0,1.5-0.3,2.1-0.8l29.5-26.6c1.3-1.1,1.4-3.1,0.2-4.3C545.4,395.1,543.5,395,542.2,396.1z"/>
	</g>
	<g>
		<path fill="#1C3E58" d="M490.6,449.5H360.5c-1.7,0-3.1,1.4-3.1,3.1c0,1.7,1.4,3.1,3.1,3.1h130.1c1.7,0,3.1-1.4,3.1-3.1
			C493.7,450.8,492.3,449.5,490.6,449.5z"/>
	</g>
	<g>
		<path fill="#1C3E58" d="M582.9,435.4c-1.7,0.5-3.4,0.8-5.2,0.8c-9.9,0-18-8.1-18-18c0-3.3,0.9-6.6,2.7-9.4c0.9-1.4,0.4-3.3-1-4.2
			c-1.4-0.9-3.3-0.4-4.2,1c-2.3,3.8-3.6,8.2-3.6,12.6c0,13.3,10.8,24.1,24.1,24.1c2.4,0,4.7-0.3,7-1c1.6-0.5,2.5-2.2,2-3.8
			C586.2,435.8,584.5,434.9,582.9,435.4z"/>
	</g>
	<g>
		<path fill="#1C3E58" d="M403.7,413.3c-4.7,0-8.5,3.8-8.5,8.5c0,4.7,3.8,8.5,8.5,8.5s8.5-3.8,8.5-8.5
			C412.2,417.1,408.4,413.3,403.7,413.3z M403.7,424.2c-1.3,0-2.3-1.1-2.3-2.3c0-1.3,1.1-2.3,2.3-2.3c1.3,0,2.3,1.1,2.3,2.3
			C406.1,423.1,405,424.2,403.7,424.2z"/>
	</g>
	<g>
		<path fill="#1C3E58" d="M474.6,516.2c-4.7,0-8.5,3.8-8.5,8.5c0,4.7,3.8,8.5,8.5,8.5s8.5-3.8,8.5-8.5
			C483.1,520,479.3,516.2,474.6,516.2z M474.6,527c-1.3,0-2.3-1.1-2.3-2.3c0-1.3,1.1-2.3,2.3-2.3c1.3,0,2.3,1.1,2.3,2.3
			C476.9,526,475.9,527,474.6,527z"/>
	</g>
	<g>
		<path fill="#1C3E58" d="M532.3,569c-4.7,0-8.5,3.8-8.5,8.5c0,4.7,3.8,8.5,8.5,8.5s8.5-3.8,8.5-8.5C540.8,572.8,537,569,532.3,569z
			 M532.3,579.8c-1.3,0-2.3-1.1-2.3-2.3c0-1.3,1.1-2.3,2.3-2.3c1.3,0,2.3,1.1,2.3,2.3C534.6,578.7,533.6,579.8,532.3,579.8z"/>
	</g>
	<g>
		<path fill="#1C3E58" d="M543.9,437.9l-39.1,29.6c-0.3,0.2-0.6,0.6-0.8,0.9l-29.2,50.1c-0.9,1.5-0.4,3.3,1.1,4.2
			c0.5,0.3,1,0.4,1.5,0.4c1.1,0,2.1-0.5,2.7-1.5L509,472l38.7-29.2c1.3-1,1.6-2.9,0.6-4.3C547.2,437.2,545.3,436.9,543.9,437.9z"/>
	</g>
	<g>
		<path fill="#1C3E58" d="M570.3,455.2c-1.3-1-3.3-0.8-4.3,0.6l-29.8,39c-0.4,0.6-0.7,1.3-0.6,2c0,0.5,2,54.1-4.7,74.6
			c-0.5,1.6,0.4,3.3,2,3.9c0.3,0.1,0.6,0.2,1,0.2c1.3,0,2.5-0.8,2.9-2.1c6.5-20,5.3-67.5,5.1-75.6l29.1-38.1
			C571.9,458.1,571.6,456.2,570.3,455.2z"/>
	</g>
	<g>
		<path fill="#1C3E58" d="M579.9,556.6h-34.2c-1.7,0-3.1,1.4-3.1,3.1c0,1.7,1.4,3.1,3.1,3.1h34.2c1.7,0,3.1-1.4,3.1-3.1
			C583,558,581.6,556.6,579.9,556.6z"/>
	</g>
	<g>
		<path fill="#1C3E58" d="M523.3,556.6h-27.2c-6.9,0-12.5,5.6-12.5,12.5c0,6.9,5.6,12.5,12.5,12.5h21.6c1.7,0,3.1-1.4,3.1-3.1
			c0-1.7-1.4-3.1-3.1-3.1h-21.6c-3.5,0-6.4-2.8-6.4-6.4s2.8-6.4,6.4-6.4h27.2c1.7,0,3.1-1.4,3.1-3.1
			C526.4,558,525,556.6,523.3,556.6z"/>
	</g>
	<g>
		<path fill="#1C3E58" d="M579.9,575.4h-32.5c-1.7,0-3.1,1.4-3.1,3.1c0,1.7,1.4,3.1,3.1,3.1h32.5c1.7,0,3.1-1.4,3.1-3.1
			C583,576.8,581.6,575.4,579.9,575.4z"/>
	</g>
	<g>
		<path fill="#1C3E58" d="M534.4,497.5c-1.7-0.3-3.3,0.7-3.6,2.4c-0.1,0.5-10.1,47.8-30.3,57c-1.5,0.7-2.2,2.5-1.5,4.1
			c0.5,1.1,1.6,1.8,2.8,1.8c0.4,0,0.9-0.1,1.3-0.3c23.1-10.5,33.3-59.3,33.8-61.3C537.1,499.4,536,497.8,534.4,497.5z"/>
	</g>
	<g>
		<path fill="#1C3E58" d="M577.7,497.4h-22.2c-1.7,0-3.1,1.4-3.1,3.1v23.2c0,7.8,6.4,14.2,14.2,14.2c7.8,0,14.2-6.4,14.2-14.2v-23.2
			C580.8,498.8,579.4,497.4,577.7,497.4z M574.6,523.7c0,4.4-3.6,8-8,8c-4.4,0-8-3.6-8-8v-20.1h16.1V523.7z"/>
	</g>
	<g>
		<path fill="#1C3E58" d="M605,321.6c-1.6-0.7-3.4,0.1-4,1.6c0,0.1-4.5,10.4-8.1,16.5c-2.5,4.2-17.6,15.3-26.6,21.3
			c-1.4,0.9-1.8,2.8-0.8,4.3c0.6,0.9,1.6,1.4,2.5,1.4c0.6,0,1.2-0.2,1.7-0.5c2.5-1.7,24.5-16.5,28.5-23.3c3.8-6.5,8.2-16.8,8.4-17.2
			C607.3,324.1,606.6,322.3,605,321.6z"/>
	</g>
	<g>
		<path fill="#1C3E58" d="M619.1,352.7l-35.6,20.4c-1.5,0.8-2,2.7-1.1,4.2c0.6,1,1.6,1.5,2.7,1.5c0.5,0,1-0.1,1.5-0.4l35.6-20.4
			c1.5-0.8,2-2.7,1.1-4.2C622.5,352.3,620.6,351.8,619.1,352.7z"/>
	</g>
	<g>
		<path fill="#1C3E58" d="M644.4,400.6l-24.2,3.5c-1.7,0.2-2.8,1.8-2.6,3.5c0.2,1.5,1.5,2.6,3,2.6c0.1,0,0.3,0,0.4,0l24.2-3.5
			c1.7-0.2,2.8-1.8,2.6-3.5C647.6,401.5,646.1,400.4,644.4,400.6z"/>
	</g>
	<g>
		<path fill="#1C3E58" d="M641.1,422l-18.2-3.2c-1.7-0.3-3.3,0.8-3.6,2.5c-0.3,1.7,0.8,3.3,2.5,3.6l18.2,3.2c0.2,0,0.4,0,0.5,0
			c1.5,0,2.7-1,3-2.5C643.8,423.9,642.7,422.3,641.1,422z"/>
	</g>
	<g>
		<path fill="#1C3E58" d="M728.9,29.4c-29.2,23-23.3,60.9-23,62.5c0.2,1.5,1.5,2.6,3,2.6c0.2,0,0.3,0,0.5,0c1.7-0.3,2.8-1.9,2.5-3.5
			c-0.1-0.4-5.6-35.8,20.8-56.6c1.3-1,1.6-3,0.5-4.3C732.1,28.6,730.2,28.4,728.9,29.4z"/>
	</g>
	<g>
		<path fill="#1C3E58" d="M818.2,174.8c-0.2-1-0.9-1.8-1.9-2.2c-1-0.4-2-0.2-2.9,0.4c-8.6,6.1-16.6,9.4-23.7,9.6h-1.2
			c-7.1-0.2-15.1-3.5-23.7-9.6c-0.8-0.6-1.9-0.7-2.9-0.4c-1,0.4-1.7,1.2-1.9,2.2c-2,9.2-6.5,22.2-16.9,32c-1.1,1.1-1.3,2.8-0.3,4.1
			c0.4,0.5,10.3,13,46.4,13s46-12.5,46.4-13c0.9-1.2,0.8-3-0.3-4.1C824.7,197.1,820.2,184,818.2,174.8z M789.1,217.8
			c-24.3,0-35.4-5.8-39.5-8.8c8.4-9,12.9-19.7,15.3-28.5c8.3,5.2,16.1,8,23.4,8.3c0,0,0.1,0,0.1,0h1.3c0,0,0.1,0,0.1,0
			c7.3-0.2,15.1-3,23.4-8.3c2.4,8.8,6.9,19.5,15.3,28.5C824.5,212,813.3,217.8,789.1,217.8z"/>
	</g>
	<g>
		<path fill="#FABF62" d="M789.1,220.9c-35,0-43.9-11.8-43.9-11.8l-18,9.8c0,0,23.9,32.9,62,32.9c38,0,62-32.9,62-32.9l-18-9.8
			C833,209.1,824.1,220.9,789.1,220.9z"/>
		<path fill="#1C3E58" d="M852.5,216.2l-18-9.8c-1.3-0.7-3-0.4-3.9,0.8c-0.1,0.1-8.9,10.6-41.5,10.6c-32.6,0-41.4-10.5-41.5-10.6
			c-0.9-1.2-2.6-1.6-3.9-0.8l-18,9.8c-0.8,0.4-1.3,1.2-1.5,2c-0.2,0.9,0,1.8,0.5,2.5c1,1.4,25.3,34.1,64.4,34.1
			c39.2,0,63.4-32.7,64.4-34.1c0.5-0.7,0.7-1.6,0.5-2.5C853.9,217.4,853.3,216.6,852.5,216.2z M789.1,248.7
			c-29.6,0-50.6-21.2-57.3-28.9l12.8-7c4.3,3.6,16.5,11.1,44.5,11.1c27.9,0,40.2-7.5,44.5-11.1l12.8,7
			C839.7,227.5,818.8,248.7,789.1,248.7z"/>
	</g>
	<g>
		<path fill="#FABF62" d="M858.4,509.7c-47.5,47.5-139.9,0-139.9,0s-9,44.9-11.9,93.3h178.3C882.9,586.1,874.8,524.2,858.4,509.7z"
			/>
		<path fill="#1C3E58" d="M860.4,507.4c-1.2-1.1-3.1-1-4.2,0.1c-23.5,23.5-59.1,22.2-84.8,17c-28.3-5.8-51.3-17.4-51.5-17.6
			c-0.9-0.4-1.9-0.5-2.7,0c-0.9,0.4-1.5,1.2-1.7,2.2c-0.1,0.5-9.1,45.7-12,93.9h6.1c2.4-39.5,8.9-76.9,11.1-88.8
			c7.7,3.6,26.6,11.7,49.3,16.3c37.6,7.7,68.1,2,88.3-16.5c12.9,15.3,20.8,65.3,23.5,89h6.2C886.1,586.2,877.9,522.8,860.4,507.4z"
			/>
	</g>
	<g>
		<path fill="#25CE9E" d="M710.8,558.4L710.8,558.4c-1.7,13.5-3.3,28.8-4.2,44.5h60.8C749,574.3,710.8,558.4,710.8,558.4z"/>
		<path fill="#1C3E58" d="M711.9,555.6c-0.9-0.4-1.9-0.3-2.7,0.2c-0.8,0.5-1.4,1.3-1.5,2.3c-2,15.8-3.4,30.8-4.3,44.9h6.1
			c0.8-12.6,2-26,3.7-40c9.6,4.6,35.8,18.6,50.4,40h7.3C752.8,572.8,713.6,556.3,711.9,555.6z"/>
	</g>
	<g>
		<path fill="#25CE9E" d="M827.4,602.9h57.5c-1-8.8-3.7-29.8-8.4-49.9C845.2,564.9,832.5,586.6,827.4,602.9z"/>
		<path fill="#1C3E58" d="M877.9,550.3c-0.8-0.4-1.7-0.5-2.5-0.2c-32.6,12.4-45.9,34.9-51.3,52.8h6.4c5.1-15.6,16.9-34.4,43.7-45.7
			c4.1,18.6,6.5,37.3,7.5,45.7h6.2c-1-8.7-3.7-30.2-8.4-50.6C879.3,551.5,878.7,550.7,877.9,550.3z"/>
	</g>
	<g>
		<path fill="#1C3E58" d="M717.7,353.4c-7.6,6.4-14.9,4.5-15.3,4.4c-1.6-0.5-3.3,0.5-3.8,2.1c-0.5,1.6,0.4,3.3,2.1,3.8
			c0.2,0.1,2,0.6,4.8,0.6c4,0,10.1-1.1,16.1-6.2c1.3-1.1,1.5-3,0.4-4.3C720.9,352.5,719,352.3,717.7,353.4z"/>
	</g>
	<g>
		<path fill="#1C3E58" d="M883.3,304.1c-1.6-0.5-3.3,0.3-3.9,1.9c-16.6,49.8-3.3,93.3-2.7,95.2c0.4,1.3,1.6,2.1,2.9,2.1
			c0.3,0,0.6,0,0.9-0.1c1.6-0.5,2.5-2.2,2-3.8c-0.1-0.4-13.3-43.4,2.7-91.4C885.7,306.4,884.9,304.6,883.3,304.1z"/>
	</g>
	<g>
		
			<rect x="754.3" y="283.2" transform="matrix(0.7071 -0.7071 0.7071 0.7071 4.5424 655.5914)" fill="#FABF62" width="78.6" height="78.2"/>
		<path fill="#1C3E58" d="M796,264.7c-1.2-1.2-3.1-1.2-4.3,0L736,320.3c-1.2,1.2-1.2,3.1,0,4.3l55.3,55.3c0.6,0.6,1.4,0.9,2.2,0.9
			c0.8,0,1.6-0.3,2.2-0.9l55.6-55.6c0.6-0.6,0.9-1.4,0.9-2.2c0-0.8-0.3-1.6-0.9-2.2L796,264.7z M793.5,373.4l-51-51l51.3-51.3l51,51
			L793.5,373.4z"/>
	</g>
	<g>
		<polygon fill="#FFFFFF" points="791.3,339.2 798.5,339.2 803.9,289.4 784.7,289.4 		"/>
		<path fill="#1C3E58" d="M803.9,286.3h-19.2c-0.9,0-1.7,0.4-2.3,1c-0.6,0.7-0.8,1.5-0.7,2.4l6.6,49.9c0.2,1.5,1.5,2.7,3,2.7h7.2
			c1.6,0,2.9-1.2,3-2.7l5.5-49.9c0.1-0.9-0.2-1.7-0.8-2.4C805.6,286.7,804.8,286.3,803.9,286.3z M795.7,336.2H794l-5.8-43.7h12.3
			L795.7,336.2z"/>
	</g>
	<g>
		<circle fill="#FFFFFF" cx="794.3" cy="354.4" r="5.8"/>
		<path fill="#1C3E58" d="M794.3,345.5c-4.9,0-8.8,4-8.8,8.8c0,4.9,4,8.8,8.8,8.8c4.9,0,8.8-4,8.8-8.8
			C803.2,349.5,799.2,345.5,794.3,345.5z M794.3,357.1c-1.5,0-2.7-1.2-2.7-2.7c0-1.5,1.2-2.7,2.7-2.7c1.5,0,2.7,1.2,2.7,2.7
			C797,355.9,795.8,357.1,794.3,357.1z"/>
	</g>
	<g>
		<path fill="#1C3E58" d="M729.8,387.2c-1.7,0.2-2.9,1.7-2.7,3.4c0.1,0.7,8.6,68,9.8,88.2c0.1,1.6,1.4,2.9,3.1,2.9
			c0.1,0,0.1,0,0.2,0c1.7-0.1,3-1.5,2.9-3.2c-1.2-20.4-9.4-85.8-9.8-88.6C733.1,388.2,731.5,387,729.8,387.2z"/>
	</g>
	<g>
		<path fill="#1C3E58" d="M826.6,542.8c-51.1,20.2-100.1-14.8-100.7-15.2c-1.4-1-3.3-0.7-4.3,0.7c-1,1.4-0.7,3.3,0.7,4.3
			c0.5,0.4,13.2,9.5,32.6,16.1c10.2,3.5,23.4,6.5,38.1,6.5c11.3,0,23.5-1.8,35.9-6.7c1.6-0.6,2.3-2.4,1.7-4
			C830,542.9,828.2,542.1,826.6,542.8z"/>
	</g>
	<g>
		<path fill="#1C3E58" d="M902,327c0.4-1.6-0.5-3.3-2.2-3.7c-1.6-0.4-3.3,0.5-3.7,2.2c-0.4,1.6-10.2,39.6,3.8,72.5
			c0.5,1.2,1.6,1.9,2.8,1.9c0.4,0,0.8-0.1,1.2-0.2c1.6-0.7,2.3-2.5,1.6-4C892.4,364.6,901.9,327.4,902,327z"/>
	</g>
	<g>
		<path fill="#1C3E58" d="M671.3,382.6c-1.6,0.6-2.4,2.3-1.9,3.9c0.1,0.2,8.3,24.1-4.1,51.4c-3.4,7.4-8.4,16.2-13.7,25.5
			c-14.3,25.1-32.2,56.4-34,87.6c-0.1,1.7,1.2,3.1,2.9,3.2c0.1,0,0.1,0,0.2,0c1.6,0,3-1.3,3.1-2.9c1.8-29.8,19.2-60.3,33.3-84.9
			c5.4-9.4,10.5-18.4,14-26c13.5-29.7,4.7-55,4.3-56.1C674.7,382.9,672.9,382,671.3,382.6z"/>
	</g>
	<g>
		<path fill="#1C3E58" d="M990.8,495c0.4-16.2-6.5-37-6.8-37.8c-0.5-1.6-2.3-2.5-3.9-1.9c-1.6,0.5-2.5,2.3-1.9,3.9
			c0.1,0.2,6.8,20.6,6.4,35.8c-0.6,22.4,5.2,58,16.9,79.9c0.6,1,1.6,1.6,2.7,1.6c0.5,0,1-0.1,1.4-0.4c1.5-0.8,2.1-2.7,1.3-4.1
			C996.1,551.6,990.2,516.9,990.8,495z"/>
	</g>
	<g>
		<path fill="#1C3E58" d="M935.3,167.5c-1.7,0-3.1,1.4-3.1,3.1v102.5c0,1.7,1.4,3.1,3.1,3.1c1.7,0,3.1-1.4,3.1-3.1V170.6
			C938.4,168.9,937,167.5,935.3,167.5z"/>
	</g>
	<g>
		<path fill="#1C3E58" d="M1101.8,167.5H946c-1.7,0-3.1,1.4-3.1,3.1c0,1.7,1.4,3.1,3.1,3.1h152.8v148.7c0,1.7,1.4,3.1,3.1,3.1
			c1.7,0,3.1-1.4,3.1-3.1V170.6C1104.9,168.9,1103.5,167.5,1101.8,167.5z"/>
	</g>
	<g>
		<path fill="#1C3E58" d="M955,191.2c-1.7,0-3.1,1.4-3.1,3.1v126.2c0,1.7,1.4,3.1,3.1,3.1c1.7,0,3.1-1.4,3.1-3.1V194.3
			C958,192.6,956.7,191.2,955,191.2z"/>
	</g>
	<g>
		<path fill="#1C3E58" d="M1081.1,337.1c-1.7,0-3.1,1.4-3.1,3.1v24c0,1.7,1.4,3.1,3.1,3.1c1.7,0,3.1-1.4,3.1-3.1v-24
			C1084.2,338.4,1082.8,337.1,1081.1,337.1z"/>
	</g>
	<g>
		<path fill="#1C3E58" d="M1081.1,191.2H963.9c-1.7,0-3.1,1.4-3.1,3.1c0,1.7,1.4,3.1,3.1,3.1H1078v132.8c0,1.7,1.4,3.1,3.1,3.1
			c1.7,0,3.1-1.4,3.1-3.1V194.3C1084.2,192.6,1082.8,191.2,1081.1,191.2z"/>
	</g>
	<g>
		<path fill="#1C3E58" d="M1023.9,397.2h-42.8c-1.7,0-3.1,1.4-3.1,3.1c0,1.7,1.4,3.1,3.1,3.1h42.8c1.7,0,3.1-1.4,3.1-3.1
			C1026.9,398.6,1025.6,397.2,1023.9,397.2z"/>
	</g>
	<g>
		<path fill="#1C3E58" d="M1032.1,432.3h-27.9c-1.7,0-3.1,1.4-3.1,3.1c0,1.7,1.4,3.1,3.1,3.1h27.9c1.7,0,3.1-1.4,3.1-3.1
			C1035.2,433.7,1033.8,432.3,1032.1,432.3z"/>
	</g>
	<g>
		<path fill="#1C3E58" d="M1057.6,475.6H1037c-1.7,0-3.1,1.4-3.1,3.1v20.6c0,1.7,1.4,3.1,3.1,3.1h20.6c1.7,0,3.1-1.4,3.1-3.1v-20.6
			C1060.7,477,1059.3,475.6,1057.6,475.6z M1054.5,496.2h-14.5v-14.5h14.5V496.2z"/>
	</g>
	<g>
		<rect x="977.8" y="233.4" fill="#4088DA" width="79.2" height="49.6"/>
	</g>
	<g>
		<path fill="#1C3E58" d="M1055.3,230.9l-37.9,25.8l-37.9-25.8c-1.4-1-3.3-0.6-4.3,0.8c-1,1.4-0.6,3.3,0.8,4.3l39.6,27
			c0.5,0.4,1.1,0.5,1.7,0.5c0.6,0,1.2-0.2,1.7-0.5l39.6-27c1.4-1,1.8-2.9,0.8-4.3C1058.6,230.3,1056.7,229.9,1055.3,230.9z"/>
	</g>
	<g>
		<path fill="#1C3E58" d="M995,261.5l-19.4,19.4c-1.2,1.2-1.2,3.1,0,4.3c0.6,0.6,1.4,0.9,2.2,0.9c0.8,0,1.6-0.3,2.2-0.9l19.4-19.4
			c1.2-1.2,1.2-3.1,0-4.3C998.2,260.3,996.2,260.3,995,261.5z"/>
	</g>
	<g>
		<path fill="#1C3E58" d="M1039.8,261.4c-1.2-1.2-3.1-1.2-4.3,0s-1.2,3.1,0,4.3l19.4,19.4c0.6,0.6,1.4,0.9,2.2,0.9
			c0.8,0,1.6-0.3,2.2-0.9c1.2-1.2,1.2-3.1,0-4.3L1039.8,261.4z"/>
	</g>
	<g>
		<path fill="#1C3E58" d="M1030.2,214.8h-42.7c-1.7,0-3.1,1.4-3.1,3.1c0,1.7,1.4,3.1,3.1,3.1h42.7c1.7,0,3.1-1.4,3.1-3.1
			C1033.3,216.2,1031.9,214.8,1030.2,214.8z"/>
	</g>
	<g>
		<path fill="#1C3E58" d="M1057,292.5h-79.2c-1.7,0-3.1,1.4-3.1,3.1c0,1.7,1.4,3.1,3.1,3.1h79.2c1.7,0,3.1-1.4,3.1-3.1
			C1060.1,293.9,1058.7,292.5,1057,292.5z"/>
	</g>
	<g>
		<path fill="#1C3E58" d="M1043,305.6h-51.1c-1.7,0-3.1,1.4-3.1,3.1c0,1.7,1.4,3.1,3.1,3.1h51.1c1.7,0,3.1-1.4,3.1-3.1
			C1046,307,1044.7,305.6,1043,305.6z"/>
	</g>
	<g>
		<path fill="#1C3E58" d="M1037.6,319.2h-40.5c-1.7,0-3.1,1.4-3.1,3.1c0,1.7,1.4,3.1,3.1,3.1h40.5c1.7,0,3.1-1.4,3.1-3.1
			C1040.7,320.6,1039.3,319.2,1037.6,319.2z"/>
	</g>
	<g>
		<path fill="#1C3E58" d="M1031.6,332.9h-28.3c-1.7,0-3.1,1.4-3.1,3.1c0,1.7,1.4,3.1,3.1,3.1h28.3c1.7,0,3.1-1.4,3.1-3.1
			C1034.6,334.2,1033.2,332.9,1031.6,332.9z"/>
	</g>
	<g>
		<path fill="#1C3E58" d="M1023.1,346.5h-11.4c-1.7,0-3.1,1.4-3.1,3.1s1.4,3.1,3.1,3.1h11.4c1.7,0,3.1-1.4,3.1-3.1
			S1024.8,346.5,1023.1,346.5z"/>
	</g>
	<g>
		<path fill="#FABF62" d="M1123.5,366H1054c-6.1,0-11,4.9-11,11v49.7c0,6.1,4.9,11,11,11h69.5c6.1,0,11-4.9,11-11V377
			C1134.5,371,1129.5,366,1123.5,366z"/>
		<path fill="#1C3E58" d="M1123.5,363H1054c-7.8,0-14.1,6.3-14.1,14.1v49.7c0,7.8,6.3,14.1,14.1,14.1h69.5c7.8,0,14.1-6.3,14.1-14.1
			V377C1137.5,369.3,1131.2,363,1123.5,363z M1131.4,426.7c0,4.4-3.6,7.9-7.9,7.9H1054c-4.4,0-7.9-3.6-7.9-7.9V377
			c0-4.4,3.6-7.9,7.9-7.9h69.5c4.4,0,7.9,3.6,7.9,7.9V426.7z"/>
	</g>
	<g>
		<path fill="#1C3E58" d="M1088.7,327.1c-15.9,0-28.8,12.9-28.8,28.8v15.4c0,15.9,12.9,28.8,28.8,28.8c15.9,0,28.8-12.9,28.8-28.8
			v-15.4C1117.5,340,1104.6,327.1,1088.7,327.1z M1111.4,371.3c0,12.5-10.2,22.6-22.6,22.6c-12.5,0-22.6-10.2-22.6-22.6v-15.4
			c0-12.5,10.2-22.6,22.6-22.6c12.5,0,22.6,10.2,22.6,22.6V371.3z"/>
	</g>
	<g>
		<path fill="#FABF62" d="M1123.5,366H1054c-6.1,0-11,4.9-11,11v49.7c0,6.1,4.9,11,11,11h69.5c6.1,0,11-4.9,11-11V377
			C1134.5,371,1129.5,366,1123.5,366z"/>
		<path fill="#1C3E58" d="M1123.5,363H1054c-7.8,0-14.1,6.3-14.1,14.1v49.7c0,7.8,6.3,14.1,14.1,14.1h69.5c7.8,0,14.1-6.3,14.1-14.1
			V377C1137.5,369.3,1131.2,363,1123.5,363z M1131.4,426.7c0,4.4-3.6,7.9-7.9,7.9H1054c-4.4,0-7.9-3.6-7.9-7.9V377
			c0-4.4,3.6-7.9,7.9-7.9h69.5c4.4,0,7.9,3.6,7.9,7.9V426.7z"/>
	</g>
	<g>
		<circle fill="#FFFFFF" cx="1088.7" cy="396.3" r="7.7"/>
		<path fill="#1C3E58" d="M1088.7,385.5c-5.9,0-10.8,4.8-10.8,10.8c0,5.9,4.8,10.8,10.8,10.8c5.9,0,10.8-4.8,10.8-10.8
			C1099.5,390.4,1094.7,385.5,1088.7,385.5z M1088.7,401c-2.6,0-4.7-2.1-4.7-4.7c0-2.6,2.1-4.7,4.7-4.7c2.6,0,4.7,2.1,4.7,4.7
			C1093.4,398.9,1091.3,401,1088.7,401z"/>
	</g>
	<g>
		<path fill="#1C3E58" d="M1088.7,401c-1.7,0-3.1,1.4-3.1,3.1v9c0,1.7,1.4,3.1,3.1,3.1c1.7,0,3.1-1.4,3.1-3.1v-9
			C1091.8,402.3,1090.4,401,1088.7,401z"/>
	</g>
	<g>
		<path fill="#1C3E58" d="M1080.4,421.8h-19c-1.2,0-2.1-1-2.1-2.1v-37.1c0-1.7-1.4-3.1-3.1-3.1c-1.7,0-3.1,1.4-3.1,3.1v37.1
			c0,4.6,3.7,8.3,8.3,8.3h19c1.7,0,3.1-1.4,3.1-3.1C1083.5,423.1,1082.1,421.8,1080.4,421.8z"/>
	</g>
	<g>
		<rect x="1057.5" y="530.2" fill="#FABF62" width="31.2" height="72.8"/>
		<path fill="#1C3E58" d="M1088.7,527.1h-31.2c-1.7,0-3.1,1.4-3.1,3.1v72.8h6.1v-69.7h25.1v69.7h6.1v-72.8
			C1091.8,528.5,1090.4,527.1,1088.7,527.1z"/>
	</g>
	<g>
		<rect x="1088.7" y="496.7" fill="#4088DA" width="47.4" height="106.2"/>
		<path fill="#1C3E58" d="M1136.2,493.7h-47.4c-1.7,0-3.1,1.4-3.1,3.1v106.2h6.1V499.8h41.3v103.1h6.1V496.7
			C1139.2,495,1137.8,493.7,1136.2,493.7z"/>
	</g>
	<g>
		<rect x="1136.2" y="506" fill="#2B71B5" width="39" height="96.9"/>
		<path fill="#1C3E58" d="M1175.2,502.9h-39c-1.7,0-3.1,1.4-3.1,3.1v96.9h6.1v-93.9h32.9v93.9h6.1V506
			C1178.3,504.3,1176.9,502.9,1175.2,502.9z"/>
	</g>
	<g>
		<rect x="1175.2" y="512.5" fill="#25CE9E" width="38.5" height="90.5"/>
		<path fill="#1C3E58" d="M1213.7,509.4h-38.5c-1.7,0-3.1,1.4-3.1,3.1v90.5h6.1v-87.4h32.4v87.4h6.1v-90.5
			C1216.7,510.8,1215.4,509.4,1213.7,509.4z"/>
	</g>
	<g>
		<rect x="1213.7" y="524.5" fill="#FABF62" width="38.2" height="78.4"/>
		<path fill="#1C3E58" d="M1251.9,521.5h-38.2c-1.7,0-3.1,1.4-3.1,3.1v78.4h6.1v-75.3h32.1v75.3h6.1v-78.4
			C1255,522.8,1253.6,521.5,1251.9,521.5z"/>
	</g>
	<g>
		<path fill="#1C3E58" d="M1081.4,556.8h-31.1c-1.7,0-3.1,1.4-3.1,3.1c0,1.7,1.4,3.1,3.1,3.1h31.1c1.7,0,3.1-1.4,3.1-3.1
			C1084.4,558.1,1083.1,556.8,1081.4,556.8z"/>
	</g>
	<g>
		<path fill="#1C3E58" d="M1081.4,569.3h-31.1c-1.7,0-3.1,1.4-3.1,3.1c0,1.7,1.4,3.1,3.1,3.1h31.1c1.7,0,3.1-1.4,3.1-3.1
			C1084.4,570.7,1083.1,569.3,1081.4,569.3z"/>
	</g>
	<g>
		<path fill="#1C3E58" d="M1175.2,555.1h-39c-1.7,0-3.1,1.4-3.1,3.1c0,1.7,1.4,3.1,3.1,3.1h39c1.7,0,3.1-1.4,3.1-3.1
			C1178.3,556.5,1176.9,555.1,1175.2,555.1z"/>
	</g>
	<g>
		<path fill="#1C3E58" d="M1175.2,567.6h-39c-1.7,0-3.1,1.4-3.1,3.1c0,1.7,1.4,3.1,3.1,3.1h39c1.7,0,3.1-1.4,3.1-3.1
			C1178.3,569,1176.9,567.6,1175.2,567.6z"/>
	</g>
	<g>
		<path fill="#1C3E58" d="M1247.7,561.4h-34c-1.7,0-3.1,1.4-3.1,3.1c0,1.7,1.4,3.1,3.1,3.1h34c1.7,0,3.1-1.4,3.1-3.1
			C1250.7,562.7,1249.4,561.4,1247.7,561.4z"/>
	</g>
	<g>
		<path fill="#1C3E58" d="M1247.7,573.9h-34c-1.7,0-3.1,1.4-3.1,3.1c0,1.7,1.4,3.1,3.1,3.1h34c1.7,0,3.1-1.4,3.1-3.1
			C1250.7,575.3,1249.4,573.9,1247.7,573.9z"/>
	</g>
	<g>
		<path fill="#1C3E58" d="M1223.3,528.7h-39c-1.7,0-3.1,1.4-3.1,3.1c0,1.7,1.4,3.1,3.1,3.1h39c1.7,0,3.1-1.4,3.1-3.1
			C1226.4,530,1225,528.7,1223.3,528.7z"/>
	</g>
	<g>
		<path fill="#1C3E58" d="M1205.4,541.2h-39c-1.7,0-3.1,1.4-3.1,3.1c0,1.7,1.4,3.1,3.1,3.1h39c1.7,0,3.1-1.4,3.1-3.1
			C1208.4,542.6,1207,541.2,1205.4,541.2z"/>
	</g>
	<g>
		<path fill="#1C3E58" d="M1152.2,527.1h-69.7c-1.7,0-3.1,1.4-3.1,3.1c0,1.7,1.4,3.1,3.1,3.1h69.7c1.7,0,3.1-1.4,3.1-3.1
			C1155.2,528.5,1153.9,527.1,1152.2,527.1z"/>
	</g>
	<g>
		<path fill="#1C3E58" d="M1152.2,539.7h-69.7c-1.7,0-3.1,1.4-3.1,3.1c0,1.7,1.4,3.1,3.1,3.1h69.7c1.7,0,3.1-1.4,3.1-3.1
			C1155.2,541,1153.9,539.7,1152.2,539.7z"/>
	</g>
	<g>
		<path fill="#1C3E58" d="M1189.7,426c-1.4,0.9-1.8,2.8-0.9,4.2c6.2,9.5,8.4,16.7,6.5,21.5c-1.4,3.6-5.4,6.2-11.8,7.8
			c-11.3,2.8-19.1,8.4-23,16.6c-6.8,14.1,0.6,30.5,0.9,31.2c0.5,1.1,1.6,1.8,2.8,1.8c0.4,0,0.9-0.1,1.3-0.3c1.5-0.7,2.2-2.5,1.5-4.1
			c-0.1-0.1-6.5-14.5-1-26c3.1-6.4,9.5-10.9,19-13.3c8.4-2.1,13.8-6,16-11.5c2.7-6.8,0.4-15.7-7.1-27.1
			C1193,425.4,1191.1,425,1189.7,426z"/>
	</g>
	<g>
		<path fill="#1C3E58" d="M1217.7,413.8c-3.6-7.5-11-9.4-15.4-9.9c0.3-2.5,1-6.2,1.8-9.3c0.2-0.8,0-1.7-0.5-2.4
			c-0.5-0.7-1.3-1.2-2.1-1.3c-5.6-0.7-13.8,8.4-18.3,14.1c-8.8-4.5-17.8-5.4-18.2-5.5c-1.4-0.1-2.7,0.7-3.2,2
			c-0.5,1.3,0,2.8,1.1,3.6c2.7,1.9,5.3,6.3,6.9,9.5c-6.2,4-7.3,12.2-7.3,12.6c-0.2,1.5,0.7,2.9,2.1,3.3c3,0.9,5.9,1,8.3,0.9
			c-0.5,7,3.5,11.4,3.7,11.6c0.6,0.6,1.4,1,2.2,1c0.4,0,0.8-0.1,1.2-0.3c7.6-3.3,11-7.6,12.4-11.1c6.3,4.3,13.7,3.4,17.4,1.9
			c1-0.4,1.8-1.4,1.9-2.5c0.4-3.8-0.1-6.5-0.9-8.5c7.3-2.8,7-8.3,7-8.6C1217.9,414.5,1217.8,414.1,1217.7,413.8z M1205.1,418.6
			c-1.4,0.2-2.7,1.3-2.8,2.8c-0.1,1.4,0.6,2.6,1.9,3.1c0.3,0.2,1.6,1.3,1.6,4.8c-2.9,0.6-8.8,1-13-4.9c-0.9-1.2-2.4-1.6-3.8-1
			c-1.3,0.6-2,2.1-1.7,3.5c0,0.1,1,5.4-7.4,10c-0.8-1.8-1.5-4.6-0.2-8.3c0.4-1.1,0.1-2.3-0.7-3.2c-0.6-0.6-1.4-0.9-2.2-0.9
			c-0.3,0-0.6,0-0.9,0.1c0,0-3.1,0.9-6.7,0.6c0.8-2.3,2.4-5.3,5.5-6.2c0.8-0.3,1.5-0.8,1.9-1.6c0.4-0.8,0.4-1.7,0.1-2.5
			c-0.2-0.6-1.6-3.9-3.8-7.4c2.9,0.9,6.3,2.2,9.5,4.1c1.3,0.8,3.1,0.4,4-0.8c3.4-4.5,7.4-8.9,10.4-11.4c-0.6,3.1-1,6.4-0.8,8
			c0.2,1.6,1.7,2.7,3.2,2.6c0.4,0,8.8-0.4,12.4,5.7C1211.2,416.6,1209.5,418,1205.1,418.6z"/>
	</g>
	<g>
		<path fill="#1C3E58" d="M1385.2,352.1c-7.2,0-14.3,0.6-21.3,1.9c-1.7,0.3-2.8,1.9-2.5,3.6c0.3,1.7,1.9,2.8,3.6,2.5
			c6.6-1.2,13.4-1.8,20.2-1.8c62,0,112.5,50.5,112.5,112.5c0,62-50.5,112.5-112.5,112.5c-55.8,0-103.7-41.6-111.4-96.9
			c-0.2-1.7-1.8-2.9-3.5-2.6c-1.7,0.2-2.8,1.8-2.6,3.5c3.9,28.1,17.8,53.9,39.3,72.7c21.6,19,49.4,29.4,78.2,29.4
			c65.4,0,118.6-53.2,118.6-118.6C1503.8,405.3,1450.6,352.1,1385.2,352.1z"/>
	</g>
	<g>
		<path fill="#1C3E58" d="M1385.2,383.4c-48.1,0-87.2,39.1-87.2,87.2c0,48.1,39.1,87.2,87.2,87.2s87.2-39.1,87.2-87.2
			C1472.5,422.6,1433.3,383.4,1385.2,383.4z M1385.2,551.8c-44.7,0-81.1-36.4-81.1-81.1c0-44.7,36.4-81.1,81.1-81.1
			c44.7,0,81.1,36.4,81.1,81.1C1466.3,515.4,1430,551.8,1385.2,551.8z"/>
	</g>
	<g>
		<path fill="#1C3E58" d="M1385.2,414.3c-31.1,0-56.3,25.3-56.3,56.3c0,31.1,25.3,56.3,56.3,56.3c31.1,0,56.3-25.3,56.3-56.3
			C1441.6,439.6,1416.3,414.3,1385.2,414.3z M1385.2,520.9c-27.7,0-50.2-22.5-50.2-50.2c0-27.7,22.5-50.2,50.2-50.2
			c27.7,0,50.2,22.5,50.2,50.2C1435.4,498.4,1412.9,520.9,1385.2,520.9z"/>
	</g>
	<g>
		<path fill="#1C3E58" d="M1385.2,451.6c-10.5,0-19.1,8.6-19.1,19.1c0,10.5,8.6,19.1,19.1,19.1s19.1-8.6,19.1-19.1
			C1404.3,460.2,1395.7,451.6,1385.2,451.6z M1385.2,483.6c-7.1,0-12.9-5.8-12.9-12.9c0-7.1,5.8-12.9,12.9-12.9
			c7.1,0,12.9,5.8,12.9,12.9C1398.2,477.8,1392.4,483.6,1385.2,483.6z"/>
	</g>
	<g>
		<path fill="#1C3E58" d="M1385.2,335.4c-1.7,0-3.1,1.4-3.1,3.1V598c0,1.7,1.4,3.1,3.1,3.1s3.1-1.4,3.1-3.1V338.5
			C1388.3,336.8,1386.9,335.4,1385.2,335.4z"/>
	</g>
	<g>
		<path fill="#1C3E58" d="M1553.1,467.6h-275.3c-1.7,0-3.1,1.4-3.1,3.1c0,1.7,1.4,3.1,3.1,3.1h275.3c1.7,0,3.1-1.4,3.1-3.1
			C1556.2,469,1554.8,467.6,1553.1,467.6z"/>
	</g>
	<g>
		<path fill="#1C3E58" d="M1542.1,498.3c-7,0-12.7,5.7-12.7,12.7c0,7,5.7,12.7,12.7,12.7s12.7-5.7,12.7-12.7
			C1554.8,504,1549.1,498.3,1542.1,498.3z M1542.1,517.5c-3.6,0-6.6-2.9-6.6-6.6c0-3.6,2.9-6.6,6.6-6.6s6.6,3,6.6,6.6
			C1548.7,514.6,1545.7,517.5,1542.1,517.5z"/>
	</g>
	<g>
		<path fill="#1C3E58" d="M1518.4,546.8h-20c-1.7,0-3.1,1.4-3.1,3.1v20c0,1.7,1.4,3.1,3.1,3.1h20c1.7,0,3.1-1.4,3.1-3.1v-20
			C1521.4,548.2,1520,546.8,1518.4,546.8z M1515.3,566.8h-13.8v-13.8h13.8V566.8z"/>
	</g>
	<g>
		<path fill="#2B71B5" d="M1285.9,417.4c-5.9,0-6,5-10.7,17.9c-4.7,13-18.9,10.4-24.2,3.7c-5.2-6.7-9.2-18.4-15-15.5
			c-5.8,2.8-1.4,15.4-1.4,15.4c12.5,25.8,37.6,24,48,12.9C1294.7,438.9,1293,417.4,1285.9,417.4z"/>
		<path fill="#1C3E58" d="M1285.9,414.3c-6.9,0-8.5,4.9-11.2,13c-0.7,2-1.4,4.3-2.4,7c-1.5,4.1-4.2,6.5-7.8,7.1
			c-4,0.6-8.7-1.2-11.1-4.2c-1.4-1.8-2.7-4.1-4.1-6.2c-3.6-6-8-13.4-14.7-10.2c-8,3.9-3.5,17.6-3,19.1c0,0.1,0.1,0.2,0.1,0.3
			c6,12.4,15.7,20.3,27.1,22c1.6,0.2,3.2,0.4,4.7,0.4c8.2,0,16-3.2,21.2-8.7c10.1-10.8,11.1-26.7,8-34
			C1290.8,415,1287.6,414.3,1285.9,414.3z M1280.5,449.6c-4.8,5.1-12.9,7.7-20.6,6.5c-9.3-1.4-17.3-8-22.4-18.4
			c-1.4-4.1-2.2-10.4-0.1-11.4c1.6-0.8,4.6,4.2,6.8,7.8c1.4,2.3,2.9,4.8,4.5,6.9c3.8,4.8,10.7,7.5,16.9,6.5
			c5.9-0.9,10.3-4.9,12.6-11.1c1-2.7,1.8-5.1,2.4-7.2c2.7-8.2,3.2-8.8,5.3-8.8c0.3,0,0.9,0.6,1.4,1.8
			C1289.8,428,1288.4,441.2,1280.5,449.6z"/>
	</g>
	<g>
		<path fill="#1C3E58" d="M1277.8,292.5h-113c-1.7,0-3.1,1.4-3.1,3.1v77.5c0,1.7,1.4,3.1,3.1,3.1h110.7c1.7,0,3.1-1.4,3.1-3.1
			c0-1.7-1.4-3.1-3.1-3.1h-107.6v-71.4h110c1.7,0,3.1-1.4,3.1-3.1C1280.9,293.9,1279.5,292.5,1277.8,292.5z"/>
	</g>
	<g>
		<path fill="#1C3E58" d="M1348.7,292.5h-40.1c-1.7,0-3.1,1.4-3.1,3.1c0,1.7,1.4,3.1,3.1,3.1h37v71.4h-35.9c-1.7,0-3.1,1.4-3.1,3.1
			c0,1.7,1.4,3.1,3.1,3.1h39c1.7,0,3.1-1.4,3.1-3.1v-77.5C1351.8,293.9,1350.4,292.5,1348.7,292.5z"/>
	</g>
	<g>
		<path fill="#1C3E58" d="M1164.8,351.1c-1.7,0-3.1,1.4-3.1,3.1v18.6c0,1.7,1.4,3.1,3.1,3.1h18.6c1.7,0,3.1-1.4,3.1-3.1
			C1186.5,360.9,1176.8,351.1,1164.8,351.1z M1167.9,369.8v-12.2c6.1,1.2,11,6.1,12.2,12.2H1167.9z"/>
	</g>
	<g>
		<path fill="#1C3E58" d="M1183.4,292.5h-18.6c-1.7,0-3.1,1.4-3.1,3.1v18.6c0,1.7,1.4,3.1,3.1,3.1c12,0,21.7-9.7,21.7-21.7
			C1186.5,293.9,1185.1,292.5,1183.4,292.5z M1167.9,310.9v-12.2h12.2C1178.8,304.8,1174,309.6,1167.9,310.9z"/>
	</g>
	<g>
		<path fill="#1C3E58" d="M1348.7,292.7h-18.6c-1.7,0-3.1,1.4-3.1,3.1c0,12,9.7,21.7,21.7,21.7c1.7,0,3.1-1.4,3.1-3.1v-18.6
			C1351.8,294,1350.4,292.7,1348.7,292.7z M1345.7,311c-6.1-1.2-11-6.1-12.2-12.2h12.2V311z"/>
	</g>
	<g>
		<path fill="#1C3E58" d="M1348.7,351.3c-12,0-21.7,9.7-21.7,21.7c0,1.7,1.4,3.1,3.1,3.1h18.6c1.7,0,3.1-1.4,3.1-3.1v-18.6
			C1351.8,352.7,1350.4,351.3,1348.7,351.3z M1345.7,369.9h-12.2c1.2-6.1,6.1-11,12.2-12.2V369.9z"/>
	</g>
	<g>
		<path fill="#1C3E58" d="M1201.8,324c-5.7,0-10.4,4.7-10.4,10.4c0,5.7,4.7,10.4,10.4,10.4c5.7,0,10.4-4.7,10.4-10.4
			C1212.2,328.6,1207.5,324,1201.8,324z M1201.8,338.6c-2.4,0-4.3-1.9-4.3-4.3c0-2.4,1.9-4.3,4.3-4.3c2.4,0,4.3,1.9,4.3,4.3
			C1206,336.7,1204.1,338.6,1201.8,338.6z"/>
	</g>
	<g>
		<path fill="#1C3E58" d="M1313.8,322.4c-5.7,0-10.4,4.7-10.4,10.4c0,5.7,4.7,10.4,10.4,10.4c5.7,0,10.4-4.7,10.4-10.4
			C1324.2,327.1,1319.5,322.4,1313.8,322.4z M1313.8,337.1c-2.4,0-4.3-1.9-4.3-4.3c0-2.4,1.9-4.3,4.3-4.3c2.4,0,4.3,1.9,4.3,4.3
			C1318,335.1,1316.1,337.1,1313.8,337.1z"/>
	</g>
	<g>
		<path fill="#1C3E58" d="M1253.6,363.6c-9.5-7.1-14.6-15.2-15.3-24c-1.1-14.8,10.9-27.2,11.1-27.3c1.2-1.2,1.2-3.1,0-4.3
			c-1.2-1.2-3.1-1.2-4.3,0c-0.6,0.6-14.1,14.4-12.9,32.1c0.8,10.7,6.7,20.2,17.7,28.5c0.6,0.4,1.2,0.6,1.8,0.6
			c0.9,0,1.8-0.4,2.5-1.2C1255.2,366.5,1254.9,364.6,1253.6,363.6z"/>
	</g>
	<g>
		<circle fill="#25CE9E" cx="1328.9" cy="502.5" r="8.4"/>
	</g>
	<g>
		<circle fill="#4088DA" cx="1353.3" cy="561.6" r="6.7"/>
	</g>
	<g>
		<circle fill="#25CE9E" cx="1430.4" cy="452.4" r="9.5"/>
	</g>
	<g>
		<circle fill="#4088DA" cx="1472.9" cy="432.3" r="5.5"/>
	</g>
	<g>
		<circle fill="#25CE9E" cx="1428" cy="392.2" r="10.5"/>
	</g>
	<g>
		<path fill="#1C3E58" d="M30.5,460.2c-0.2,0-0.5,0-0.7,0.1c-0.9,0.2-1.7,0.7-2.2,1.5c-0.5,0.8-0.7,1.7-0.5,2.6
			c0.3,1.6,1.7,2.7,3.3,2.7c0,0,0,0,0,0c0.2,0,0.5,0,0.7-0.1c1.8-0.4,3-2.2,2.7-4C33.5,461.3,32.1,460.2,30.5,460.2z"/>
	</g>
	<g>
		<path fill="#1C3E58" d="M197.2,530.1c-0.2,0-0.5,0-0.7,0.1c-1.8,0.4-3,2.2-2.7,4c0.3,1.6,1.7,2.7,3.3,2.7c0,0,0,0,0,0
			c0.2,0,0.5,0,0.7-0.1c0.9-0.2,1.7-0.7,2.2-1.5c0.5-0.8,0.7-1.7,0.5-2.6C200.2,531.3,198.8,530.1,197.2,530.1z"/>
	</g>
	<g>
		<path fill="#1C3E58" d="M77,205.1c-0.2,0-0.5,0-0.7,0.1c-1.8,0.4-3,2.2-2.6,4c0.3,1.6,1.7,2.7,3.3,2.7h0c0.2,0,0.5,0,0.7-0.1
			c1.8-0.4,3-2.2,2.7-4C80,206.3,78.6,205.1,77,205.1z"/>
	</g>
	<g>
		<path fill="#1C3E58" d="M290.5,476.2c-0.2,0-0.5,0-0.7,0.1c-0.9,0.2-1.7,0.7-2.2,1.5c-0.5,0.8-0.7,1.7-0.5,2.6
			c0.3,1.6,1.7,2.7,3.3,2.7h0c0.2,0,0.5,0,0.7-0.1c0.9-0.2,1.7-0.7,2.2-1.5c0.5-0.8,0.7-1.7,0.5-2.6
			C293.6,477.4,292.2,476.2,290.5,476.2z"/>
	</g>
	<g>
		<path fill="#1C3E58" d="M471.6,554.9c-0.2,0-0.5,0-0.7,0.1c-0.9,0.2-1.7,0.7-2.2,1.5c-0.5,0.8-0.7,1.7-0.5,2.6
			c0.3,1.6,1.7,2.7,3.3,2.7c0.2,0,0.5,0,0.7-0.1c0.9-0.2,1.7-0.7,2.2-1.5c0.5-0.8,0.7-1.7,0.5-2.6
			C474.6,556.1,473.2,554.9,471.6,554.9z"/>
	</g>
	<g>
		<path fill="#1C3E58" d="M593.9,429.1c-0.2,0-0.5,0-0.7,0.1c-1.8,0.4-3,2.2-2.6,4c0.3,1.6,1.7,2.7,3.3,2.7c0.2,0,0.5,0,0.7-0.1
			c1.8-0.4,3-2.2,2.7-4C596.9,430.2,595.5,429.1,593.9,429.1z"/>
	</g>
	<g>
		<path fill="#1C3E58" d="M493.1,322c-0.2,0-0.5,0-0.7,0.1c-0.9,0.2-1.7,0.7-2.2,1.5c-0.5,0.8-0.7,1.7-0.5,2.6
			c0.3,1.6,1.7,2.7,3.3,2.7h0c0.2,0,0.5,0,0.7-0.1c1.8-0.4,3-2.2,2.6-4C496.1,323.1,494.7,322,493.1,322z"/>
	</g>
	<g>
		<path fill="#1C3E58" d="M582,202.3c-0.2,0-0.5,0-0.7,0.1c-1.8,0.4-3,2.2-2.7,4c0.3,1.6,1.7,2.7,3.3,2.7c0.2,0,0.5,0,0.7-0.1
			c1.8-0.4,3-2.2,2.6-4C585,203.4,583.6,202.3,582,202.3z"/>
	</g>
	<g>
		<path fill="#1C3E58" d="M739.9,21.1c-0.2,0-0.5,0-0.7,0.1c-1.8,0.4-3,2.2-2.7,4c0.3,1.6,1.7,2.7,3.3,2.7c0.2,0,0.5,0,0.7-0.1
			c0.9-0.2,1.7-0.7,2.2-1.5c0.5-0.8,0.7-1.7,0.5-2.6C742.9,22.3,741.5,21.1,739.9,21.1z"/>
	</g>
	<g>
		<path fill="#1C3E58" d="M1042.9,214.5c-0.2,0-0.5,0-0.7,0.1c-0.9,0.2-1.7,0.7-2.2,1.5c-0.5,0.8-0.7,1.7-0.5,2.6
			c0.3,1.6,1.7,2.7,3.3,2.7c0.2,0,0.5,0,0.7-0.1c1.8-0.4,3-2.2,2.7-4C1045.9,215.6,1044.5,214.5,1042.9,214.5z"/>
	</g>
	<g>
		<path fill="#1C3E58" d="M741.5,490.8c-0.2,0-0.5,0-0.7,0.1c-0.9,0.2-1.7,0.7-2.2,1.5c-0.5,0.8-0.7,1.7-0.5,2.6
			c0.3,1.6,1.7,2.7,3.3,2.7c0.2,0,0.5,0,0.7-0.1c1.8-0.4,3-2.2,2.7-4C744.5,491.9,743.1,490.8,741.5,490.8z"/>
	</g>
	<g>
		<path fill="#1C3E58" d="M622,568.8c-0.2,0-0.5,0-0.7,0.1c-0.9,0.2-1.7,0.7-2.2,1.5c-0.5,0.8-0.7,1.7-0.5,2.6
			c0.3,1.6,1.7,2.7,3.3,2.7h0c0.2,0,0.5,0,0.7-0.1c0.9-0.2,1.7-0.7,2.2-1.5c0.5-0.8,0.7-1.7,0.5-2.6
			C625,569.9,623.6,568.8,622,568.8z"/>
	</g>
	<g>
		<path fill="#1C3E58" d="M845.1,535.2c-0.2,0-0.5,0-0.7,0.1c-0.9,0.2-1.7,0.7-2.2,1.5c-0.5,0.8-0.7,1.7-0.5,2.6
			c0.3,1.6,1.7,2.7,3.3,2.7c0.2,0,0.5,0,0.7-0.1c1.8-0.4,3-2.2,2.7-4C848.1,536.3,846.7,535.2,845.1,535.2z"/>
	</g>
	<g>
		<path fill="#1C3E58" d="M909.3,405.7c-0.2,0-0.5,0-0.7,0.1c-0.9,0.2-1.7,0.7-2.2,1.5c-0.5,0.8-0.7,1.7-0.5,2.6
			c0.3,1.6,1.7,2.7,3.3,2.7c0.2,0,0.5,0,0.7-0.1c1.8-0.4,3-2.2,2.6-4C912.3,406.8,910.9,405.7,909.3,405.7z"/>
	</g>
	<g>
		<path fill="#1C3E58" d="M1092.4,421.4c-0.2,0-0.5,0-0.7,0.1c-1.8,0.4-3,2.2-2.7,4c0.3,1.6,1.7,2.7,3.3,2.7h0c0.2,0,0.5,0,0.7-0.1
			c1.8-0.4,3-2.2,2.7-4C1095.4,422.6,1094,421.4,1092.4,421.4z"/>
	</g>
	<g>
		<path fill="#1C3E58" d="M1577.1,344.4c-0.2,0-0.5,0-0.7,0.1c-1.8,0.4-3,2.2-2.7,4c0.3,1.6,1.7,2.7,3.3,2.7c0.2,0,0.5,0,0.7-0.1
			c0.9-0.2,1.7-0.7,2.2-1.5c0.5-0.8,0.7-1.7,0.5-2.6C1580.1,345.6,1578.7,344.4,1577.1,344.4z"/>
	</g>
	<g>
		<path fill="#1C3E58" d="M1426.9,338.7c-0.2,0-0.5,0-0.7,0.1c-0.9,0.2-1.7,0.7-2.2,1.5c-0.5,0.8-0.7,1.7-0.5,2.6
			c0.3,1.6,1.7,2.7,3.3,2.7h0c0.2,0,0.5,0,0.7-0.1c1.8-0.4,3-2.2,2.6-4C1429.9,339.8,1428.5,338.7,1426.9,338.7z"/>
	</g>
	<g>
		<path fill="#1C3E58" d="M1538.7,257.7c-0.2,0-0.5,0-0.7,0.1c-1.8,0.4-3,2.2-2.6,4c0.3,1.6,1.7,2.7,3.3,2.7c0.2,0,0.5,0,0.7-0.1
			c0.9-0.2,1.7-0.7,2.2-1.5c0.5-0.8,0.7-1.7,0.5-2.6C1541.7,258.9,1540.3,257.7,1538.7,257.7z"/>
	</g>
	<g>
		<path fill="#1C3E58" d="M322.9,195.1h-2.8c-1.7,0-3.1,1.4-3.1,3.1c0,1.7,1.4,3.1,3.1,3.1h2.8c1.7,0,3.1-1.4,3.1-3.1
			C325.9,196.5,324.6,195.1,322.9,195.1z"/>
		<path fill="#1C3E58" d="M306.1,195.1h-2.8c-1.7,0-3.1,1.4-3.1,3.1c0,1.7,1.4,3.1,3.1,3.1h2.8c1.7,0,3.1-1.4,3.1-3.1
			C309.2,196.5,307.8,195.1,306.1,195.1z"/>
		<path fill="#1C3E58" d="M338.1,193.6c-1.3,0-2.5,0.8-2.9,2c-0.9,0.5-1.4,1.5-1.4,2.6c0,1.7,1.4,3.1,3.1,3.1h1.2
			c1.7,0,3.1-1.4,3.1-3.1v-1.6C341.1,194.9,339.8,193.6,338.1,193.6z"/>
		<path fill="#1C3E58" d="M342.3,177.5c-1.5-0.7-3.4,0-4.1,1.5c-0.4,0.9-0.8,1.9-1.1,2.8c-0.6,1.6,0.2,3.3,1.8,3.9
			c0.3,0.1,0.7,0.2,1,0.2c1.3,0,2.4-0.8,2.9-2c0.3-0.8,0.6-1.6,1-2.4C344.6,180,343.9,178.2,342.3,177.5z"/>
		<path fill="#1C3E58" d="M367.5,161.2h-2.8c-1.7,0-3.1,1.4-3.1,3.1c0,1.7,1.4,3.1,3.1,3.1h2.8c1.7,0,3.1-1.4,3.1-3.1
			C370.6,162.6,369.2,161.2,367.5,161.2z"/>
		<path fill="#1C3E58" d="M289.4,195.1h-2.8c-1.7,0-3.1,1.4-3.1,3.1c0,1.7,1.4,3.1,3.1,3.1h2.8c1.7,0,3.1-1.4,3.1-3.1
			C292.4,196.5,291.1,195.1,289.4,195.1z"/>
		<path fill="#1C3E58" d="M172.1,195.1h-2.8c-1.7,0-3.1,1.4-3.1,3.1c0,1.7,1.4,3.1,3.1,3.1h2.8c1.7,0,3.1-1.4,3.1-3.1
			C175.2,196.5,173.8,195.1,172.1,195.1z"/>
		<path fill="#1C3E58" d="M188.8,195.1h-2.8c-1.7,0-3.1,1.4-3.1,3.1c0,1.7,1.4,3.1,3.1,3.1h2.8c1.7,0,3.1-1.4,3.1-3.1
			C191.9,196.5,190.5,195.1,188.8,195.1z"/>
		<path fill="#1C3E58" d="M384.3,161.2h-2.8c-1.7,0-3.1,1.4-3.1,3.1c0,1.7,1.4,3.1,3.1,3.1h2.8c1.7,0,3.1-1.4,3.1-3.1
			C387.3,162.6,385.9,161.2,384.3,161.2z"/>
		<path fill="#1C3E58" d="M205.6,195.1h-2.8c-1.7,0-3.1,1.4-3.1,3.1c0,1.7,1.4,3.1,3.1,3.1h2.8c1.7,0,3.1-1.4,3.1-3.1
			C208.7,196.5,207.3,195.1,205.6,195.1z"/>
		<path fill="#1C3E58" d="M255.9,195.1h-2.8c-1.7,0-3.1,1.4-3.1,3.1c0,1.7,1.4,3.1,3.1,3.1h2.8c1.7,0,3.1-1.4,3.1-3.1
			C258.9,196.5,257.6,195.1,255.9,195.1z"/>
		<path fill="#1C3E58" d="M222.4,195.1h-2.8c-1.7,0-3.1,1.4-3.1,3.1c0,1.7,1.4,3.1,3.1,3.1h2.8c1.7,0,3.1-1.4,3.1-3.1
			C225.4,196.5,224,195.1,222.4,195.1z"/>
		<path fill="#1C3E58" d="M272.6,195.1h-2.8c-1.7,0-3.1,1.4-3.1,3.1c0,1.7,1.4,3.1,3.1,3.1h2.8c1.7,0,3.1-1.4,3.1-3.1
			C275.7,196.5,274.3,195.1,272.6,195.1z"/>
		<path fill="#1C3E58" d="M239.1,195.1h-2.8c-1.7,0-3.1,1.4-3.1,3.1c0,1.7,1.4,3.1,3.1,3.1h2.8c1.7,0,3.1-1.4,3.1-3.1
			C242.2,196.5,240.8,195.1,239.1,195.1z"/>
		<path fill="#1C3E58" d="M349.7,164.8c-0.8,0.6-1.7,1.2-2.5,1.9c-1.3,1.1-1.4,3-0.3,4.3c0.6,0.7,1.5,1.1,2.3,1.1
			c0.7,0,1.4-0.2,2-0.8c0.6-0.5,1.3-1,1.9-1.5c1.4-1,1.8-2.9,0.8-4.3C353,164.2,351.1,163.9,349.7,164.8z"/>
		<path fill="#1C3E58" d="M551.8,161.2H549c-1.7,0-3.1,1.4-3.1,3.1c0,1.7,1.4,3.1,3.1,3.1h2.8c1.7,0,3.1-1.4,3.1-3.1
			C554.8,162.6,553.5,161.2,551.8,161.2z"/>
		<path fill="#1C3E58" d="M568.5,161.2h-2.8c-1.7,0-3.1,1.4-3.1,3.1c0,1.7,1.4,3.1,3.1,3.1h2.8c1.7,0,3.1-1.4,3.1-3.1
			C571.6,162.6,570.2,161.2,568.5,161.2z"/>
		<path fill="#1C3E58" d="M518.3,161.2h-2.8c-1.7,0-3.1,1.4-3.1,3.1c0,1.7,1.4,3.1,3.1,3.1h2.8c1.7,0,3.1-1.4,3.1-3.1
			C521.3,162.6,520,161.2,518.3,161.2z"/>
		<path fill="#1C3E58" d="M535,161.2h-2.8c-1.7,0-3.1,1.4-3.1,3.1c0,1.7,1.4,3.1,3.1,3.1h2.8c1.7,0,3.1-1.4,3.1-3.1
			C538.1,162.6,536.7,161.2,535,161.2z"/>
		<path fill="#1C3E58" d="M618.8,161.2H616c-1.7,0-3.1,1.4-3.1,3.1c0,1.7,1.4,3.1,3.1,3.1h2.8c1.7,0,3.1-1.4,3.1-3.1
			C621.9,162.6,620.5,161.2,618.8,161.2z"/>
		<path fill="#1C3E58" d="M401,161.2h-2.8c-1.7,0-3.1,1.4-3.1,3.1c0,1.7,1.4,3.1,3.1,3.1h2.8c1.7,0,3.1-1.4,3.1-3.1
			C404.1,162.6,402.7,161.2,401,161.2z"/>
		<path fill="#1C3E58" d="M585.3,161.2h-2.8c-1.7,0-3.1,1.4-3.1,3.1c0,1.7,1.4,3.1,3.1,3.1h2.8c1.7,0,3.1-1.4,3.1-3.1
			C588.3,162.6,587,161.2,585.3,161.2z"/>
		<path fill="#1C3E58" d="M602,161.2h-2.8c-1.7,0-3.1,1.4-3.1,3.1c0,1.7,1.4,3.1,3.1,3.1h2.8c1.7,0,3.1-1.4,3.1-3.1
			C605.1,162.6,603.7,161.2,602,161.2z"/>
		<path fill="#1C3E58" d="M434.5,161.2h-2.8c-1.7,0-3.1,1.4-3.1,3.1c0,1.7,1.4,3.1,3.1,3.1h2.8c1.7,0,3.1-1.4,3.1-3.1
			C437.6,162.6,436.2,161.2,434.5,161.2z"/>
		<path fill="#1C3E58" d="M451.3,161.2h-2.8c-1.7,0-3.1,1.4-3.1,3.1c0,1.7,1.4,3.1,3.1,3.1h2.8c1.7,0,3.1-1.4,3.1-3.1
			C454.3,162.6,453,161.2,451.3,161.2z"/>
		<path fill="#1C3E58" d="M417.8,161.2H415c-1.7,0-3.1,1.4-3.1,3.1c0,1.7,1.4,3.1,3.1,3.1h2.8c1.7,0,3.1-1.4,3.1-3.1
			C420.8,162.6,419.5,161.2,417.8,161.2z"/>
		<path fill="#1C3E58" d="M501.5,161.2h-2.8c-1.7,0-3.1,1.4-3.1,3.1c0,1.7,1.4,3.1,3.1,3.1h2.8c1.7,0,3.1-1.4,3.1-3.1
			C504.6,162.6,503.2,161.2,501.5,161.2z"/>
		<path fill="#1C3E58" d="M468,161.2h-2.8c-1.7,0-3.1,1.4-3.1,3.1c0,1.7,1.4,3.1,3.1,3.1h2.8c1.7,0,3.1-1.4,3.1-3.1
			C471.1,162.6,469.7,161.2,468,161.2z"/>
		<path fill="#1C3E58" d="M484.8,161.2H482c-1.7,0-3.1,1.4-3.1,3.1c0,1.7,1.4,3.1,3.1,3.1h2.8c1.7,0,3.1-1.4,3.1-3.1
			C487.8,162.6,486.5,161.2,484.8,161.2z"/>
	</g>
	<g>
		<path fill="#1C3E58" d="M866,198.7c-0.8-0.4-1.6-0.9-2.4-1.3c-1.5-0.8-3.3-0.3-4.2,1.1c-0.8,1.5-0.3,3.3,1.1,4.2
			c0.8,0.5,1.7,0.9,2.5,1.4c0.5,0.3,1,0.4,1.5,0.4c1.1,0,2.1-0.6,2.7-1.6C868,201.3,867.5,199.5,866,198.7z"/>
		<path fill="#1C3E58" d="M852.3,189.8c-0.7-0.6-1.4-1.1-2.1-1.7c-1.3-1.1-3.2-0.9-4.3,0.4c-1.1,1.3-0.9,3.2,0.4,4.3
			c0.7,0.6,1.5,1.2,2.3,1.8c0.6,0.4,1.2,0.6,1.9,0.6c0.9,0,1.8-0.4,2.4-1.2C853.9,192.8,853.7,190.9,852.3,189.8z"/>
		<path fill="#1C3E58" d="M839.7,176.7c-0.8-1.5-2.7-2-4.2-1.2c-1.5,0.8-2,2.7-1.2,4.2c0.5,0.9,1,1.7,1.7,2.6
			c0.6,0.8,1.5,1.3,2.5,1.3c0.6,0,1.2-0.2,1.8-0.6c1.4-1,1.7-2.9,0.7-4.3C840.5,178,840.1,177.3,839.7,176.7z"/>
		<path fill="#1C3E58" d="M880.8,205.3c-0.8-0.3-1.7-0.6-2.5-0.9c-1.6-0.6-3.4,0.2-4,1.8c-0.6,1.6,0.2,3.4,1.8,4
			c0.9,0.3,1.8,0.7,2.7,1c0.3,0.1,0.7,0.2,1,0.2c1.3,0,2.4-0.8,2.9-2C883.2,207.7,882.4,205.9,880.8,205.3z"/>
		<path fill="#1C3E58" d="M922.4,229.8c-1.3-1.1-3.2-0.9-4.3,0.4c-1.1,1.3-0.9,3.2,0.4,4.3c0.8,0.7,1.5,1.2,2.1,1.8
			c0.6,0.5,1.3,0.7,2,0.7c0.9,0,1.7-0.4,2.3-1.1c1.1-1.3,0.9-3.2-0.4-4.3C924,231.1,923.3,230.5,922.4,229.8z"/>
		<path fill="#1C3E58" d="M911.1,221.2c-0.8-0.5-1.5-1.1-2.3-1.6c-1.4-1-3.3-0.6-4.3,0.8c-1,1.4-0.6,3.3,0.8,4.3
			c0.8,0.5,1.5,1.1,2.3,1.6c0.5,0.4,1.2,0.6,1.8,0.6c1,0,1.9-0.5,2.5-1.3C912.8,224.1,912.5,222.2,911.1,221.2z"/>
		<path fill="#1C3E58" d="M896.7,212.1c-0.8-0.5-1.7-0.9-2.5-1.3c-1.5-0.8-3.4-0.2-4.1,1.3c-0.8,1.5-0.2,3.4,1.3,4.1
			c0.8,0.4,1.6,0.8,2.4,1.3c0.5,0.3,1,0.4,1.5,0.4c1.1,0,2.1-0.6,2.7-1.6C898.7,214.7,898.1,212.9,896.7,212.1z"/>
	</g>
	<g>
		<path fill="#1C3E58" d="M753.2,278.1c-4.3-2.2-9.8,0.3-16.7,3.5c-9.1,4.2-20.4,9.5-31.6,5.2c-1.8-0.7-3.6-1.4-5.5-2.2l11-83.9
			c1-7.7-4.5-14.8-12.2-15.9c-0.1,0-0.3,0-0.4,0c-7.6,0-14.7,6.2-15.7,13.7l-4,27.8c0-14.6-0.1-30.9-0.1-44.2
			c0-7.6-5.8-14-13.2-14.5c-4-0.3-7.7,1.1-10.6,3.8c-2.8,2.7-4.5,6.4-4.5,10.3l0,3.6c-2.6-1.9-5.8-2.8-9.1-2.6
			c-7.4,0.5-13.2,6.8-13.2,14.5l0.6,41.9l-3.8-19.7c-1.4-6.6-7.5-11.1-14-10.2c-3,0.4-5.5,1.9-7.2,4.3c-4.8,7-1.7,20.3-0.1,27.5
			c0.3,1.4,4.5,26.3,7.3,43.4c-5.9,13.2-0.5,45.4,9.7,56.9c5.7,6.4,11.2,8.8,16.7,8.8c6.7,0,13.4-3.6,20.1-8.1
			c5.4,4.4,12.3,6.1,20.6,5.1c19.1-2.4,23.3-7.2,27.6-14.3c2.2-3.6,4.3-7.1,11.2-10.6c3.4-1.7,7-3.4,10.5-5
			c16.6-7.7,33.7-15.6,30.8-32C757,281.6,755.5,279.2,753.2,278.1z M724.2,311.5c-3.5,1.6-7.2,3.3-10.7,5.1
			c-8.4,4.3-11.3,9.1-13.6,12.9c-3.1,5.1-5.6,9.2-23.2,11.4c-7.4,0.9-13-0.7-17.4-5c-1-1-2.7-1.2-3.9-0.4
			c-14.1,9.7-21.5,12.1-30.7,1.6c-8.9-10-13.9-40.5-8.4-51c0.3-0.6,0.4-1.3,0.3-1.9c-1.2-7.2-7.2-43.2-7.5-44.8
			c-1.2-5.3-4.1-17.8-0.9-22.6c0.7-1,1.6-1.5,2.9-1.7c0.3,0,0.6-0.1,0.8-0.1c3,0,5.7,2.2,6.4,5.4l10.4,53.8c0.3,1.6,1.7,2.6,3.3,2.5
			c1.6-0.2,2.8-1.5,2.7-3.1l-1.2-76.7c0-4.4,3.3-8.1,7.5-8.4c2.2-0.1,4.4,0.6,6,2.2c1.6,1.5,2.5,3.6,2.5,5.9l0,67.8
			c0,1.7,1.4,3.1,3.1,3.1h0c1.7,0,3.1-1.4,3.1-3.1l0.1-82.9c0-2.2,0.9-4.3,2.5-5.8c1.6-1.5,3.8-2.3,6-2.1c4.2,0.3,7.5,4,7.5,8.4
			c0,0.2,0,21.2,0.1,42c0,12.2,0.1,21.9,0.2,28.9c0,4,0.1,7.2,0.1,9.6c0.1,4.3,0.1,6.4,3,6.6c1.6,0.1,3-1,3.2-2.6l9.6-67.1
			c0.6-4.5,4.9-8.3,9.4-8.4c4.3,0.7,7.3,4.6,6.7,9l-11.3,86.2c-0.2,1.3,0.6,2.6,1.8,3.2c2.7,1.2,5.3,2.3,7.9,3.3
			c13.6,5.2,26.8-0.9,36.4-5.4c4.3-2,9.7-4.5,11.3-3.7c0.5,0.2,0.9,1.2,1.2,2.7C753.5,297.1,742.5,303.1,724.2,311.5z"/>
	</g>
	<g>
		<path fill="#1C3E58" d="M654.8,326.2c0.1-1.7-1.2-3.1-2.9-3.2c-1.7-0.1-3.1,1.2-3.2,2.9c-0.3,7,5.5,13.6,6.2,14.3
			c0.6,0.7,1.4,1,2.3,1c0.7,0,1.5-0.3,2.1-0.8c1.2-1.1,1.3-3.1,0.2-4.3C658.1,334.7,654.6,330,654.8,326.2z"/>
	</g>
	<g>
		<path fill="#1C3E58" d="M381.9,311.1c-1.7,0-3.1,1.4-3.1,3.1v2.8c0,1.7,1.4,3.1,3.1,3.1c1.7,0,3.1-1.4,3.1-3.1v-2.8
			C384.9,312.5,383.6,311.1,381.9,311.1z"/>
		<path fill="#1C3E58" d="M381.9,344.6c-1.7,0-3.1,1.4-3.1,3.1v2.8c0,1.7,1.4,3.1,3.1,3.1c1.7,0,3.1-1.4,3.1-3.1v-2.8
			C384.9,346,383.6,344.6,381.9,344.6z"/>
		<path fill="#1C3E58" d="M381.9,327.9c-1.7,0-3.1,1.4-3.1,3.1v2.8c0,1.7,1.4,3.1,3.1,3.1c1.7,0,3.1-1.4,3.1-3.1v-2.8
			C384.9,329.2,383.6,327.9,381.9,327.9z"/>
		<path fill="#1C3E58" d="M381.9,378.1c-1.7,0-3.1,1.4-3.1,3.1v2.8c0,1.7,1.4,3.1,3.1,3.1c1.7,0,3.1-1.4,3.1-3.1v-2.8
			C384.9,379.5,383.6,378.1,381.9,378.1z"/>
		<path fill="#1C3E58" d="M381.9,361.4c-1.7,0-3.1,1.4-3.1,3.1v2.8c0,1.7,1.4,3.1,3.1,3.1c1.7,0,3.1-1.4,3.1-3.1v-2.8
			C384.9,362.7,383.6,361.4,381.9,361.4z"/>
		<path fill="#1C3E58" d="M381.9,260.9c-1.7,0-3.1,1.4-3.1,3.1v2.8c0,1.7,1.4,3.1,3.1,3.1c1.7,0,3.1-1.4,3.1-3.1v-2.8
			C384.9,262.2,383.6,260.9,381.9,260.9z"/>
		<path fill="#1C3E58" d="M381.9,227.4c-1.7,0-3.1,1.4-3.1,3.1v2.8c0,1.7,1.4,3.1,3.1,3.1c1.7,0,3.1-1.4,3.1-3.1v-2.8
			C384.9,228.7,383.6,227.4,381.9,227.4z"/>
		<path fill="#1C3E58" d="M381.9,244.1c-1.7,0-3.1,1.4-3.1,3.1v2.8c0,1.7,1.4,3.1,3.1,3.1c1.7,0,3.1-1.4,3.1-3.1v-2.8
			C384.9,245.5,383.6,244.1,381.9,244.1z"/>
		<path fill="#1C3E58" d="M381.9,277.6c-1.7,0-3.1,1.4-3.1,3.1v2.8c0,1.7,1.4,3.1,3.1,3.1c1.7,0,3.1-1.4,3.1-3.1v-2.8
			C384.9,279,383.6,277.6,381.9,277.6z"/>
		<path fill="#1C3E58" d="M381.9,294.4c-1.7,0-3.1,1.4-3.1,3.1v2.8c0,1.7,1.4,3.1,3.1,3.1c1.7,0,3.1-1.4,3.1-3.1v-2.8
			C384.9,295.7,383.6,294.4,381.9,294.4z"/>
	</g>
	<g>
		<path fill="#1C3E58" d="M239.9,553.4c-0.6,0.6-1.3,1.3-1.9,1.9c-1.2,1.2-1.3,3.1-0.1,4.3c0.6,0.6,1.4,0.9,2.2,0.9
			c0.8,0,1.5-0.3,2.1-0.9c0.7-0.7,1.4-1.3,2.1-2c1.2-1.2,1.2-3.2-0.1-4.3C243,552.2,241.1,552.2,239.9,553.4z"/>
		<path fill="#1C3E58" d="M227.5,563.7c-0.7,0.5-1.5,1-2.3,1.5c-1.4,0.9-1.9,2.8-1,4.2c0.6,0.9,1.6,1.4,2.6,1.4
			c0.6,0,1.1-0.1,1.6-0.5c0.8-0.5,1.6-1,2.4-1.6c1.4-0.9,1.8-2.8,0.8-4.3C230.8,563.1,228.9,562.8,227.5,563.7z"/>
		<path fill="#1C3E58" d="M197.9,575.8c-0.9,0.2-1.8,0.3-2.6,0.4c-1.7,0.2-2.8,1.8-2.6,3.5c0.2,1.5,1.5,2.6,3,2.6c0.1,0,0.3,0,0.5,0
			c1-0.1,1.9-0.3,2.9-0.5c1.7-0.3,2.8-1.9,2.5-3.6C201.1,576.6,199.5,575.5,197.9,575.8z"/>
		<path fill="#1C3E58" d="M213.3,571.3c-0.8,0.3-1.7,0.7-2.5,1c-1.6,0.6-2.4,2.3-1.8,3.9c0.5,1.2,1.6,2,2.9,2c0.4,0,0.7-0.1,1.1-0.2
			c0.9-0.3,1.8-0.7,2.7-1c1.6-0.6,2.3-2.4,1.7-4C216.7,571.4,214.9,570.6,213.3,571.3z"/>
		<path fill="#1C3E58" d="M181.8,577.1c-0.9,0-1.8-0.1-2.7-0.1c-1.7-0.1-3.1,1.2-3.2,2.9c-0.1,1.7,1.2,3.1,2.9,3.2
			c1,0.1,1.9,0.1,2.9,0.1c0,0,0.1,0,0.1,0c1.7,0,3-1.3,3.1-3C184.9,578.5,183.5,577.1,181.8,577.1z"/>
		<path fill="#1C3E58" d="M274.3,553c-1.3-1.1-3.2-1-4.3,0.2c-1.1,1.3-1,3.2,0.2,4.3c0.7,0.6,1.4,1.3,2.2,1.9c0.6,0.5,1.3,0.7,2,0.7
			c0.9,0,1.7-0.4,2.3-1.1c1.1-1.3,1-3.2-0.3-4.3C275.7,554.2,275,553.6,274.3,553z"/>
		<path fill="#1C3E58" d="M319.4,575.2c-0.9-0.1-1.7-0.2-2.6-0.3c-1.7-0.2-3.2,0.9-3.5,2.6c-0.2,1.7,0.9,3.2,2.6,3.5
			c1,0.1,2,0.3,2.9,0.3c0.1,0,0.2,0,0.3,0c1.6,0,2.9-1.2,3-2.8C322.3,576.8,321.1,575.3,319.4,575.2z"/>
		<path fill="#1C3E58" d="M303.9,571.6c-0.8-0.3-1.7-0.6-2.5-1c-1.6-0.7-3.4,0.1-4,1.7c-0.6,1.6,0.1,3.4,1.7,4
			c0.9,0.4,1.8,0.7,2.7,1.1c0.4,0.1,0.7,0.2,1.1,0.2c1.2,0,2.4-0.8,2.9-2C306.3,573.9,305.5,572.2,303.9,571.6z"/>
		<path fill="#1C3E58" d="M254.1,539.9c-1.4-0.9-3.3-0.5-4.2,0.9c-0.5,0.8-1,1.5-1.5,2.2c-1,1.4-0.6,3.3,0.8,4.3
			c0.5,0.4,1.1,0.5,1.7,0.5c1,0,1.9-0.5,2.5-1.3c0.5-0.8,1.1-1.6,1.6-2.4C256,542.7,255.5,540.8,254.1,539.9z"/>
		<path fill="#1C3E58" d="M289.5,564.4c-0.8-0.5-1.5-1-2.3-1.5c-1.4-0.9-3.3-0.5-4.2,0.9c-0.9,1.4-0.5,3.3,0.9,4.2
			c0.8,0.5,1.6,1,2.4,1.6c0.5,0.3,1.1,0.5,1.6,0.5c1,0,2-0.5,2.6-1.4C291.4,567.2,290.9,565.3,289.5,564.4z"/>
		<path fill="#1C3E58" d="M262.8,541.3c-1.1-1.3-3-1.4-4.3-0.3s-1.4,3-0.3,4.3c0.6,0.7,1.2,1.4,1.9,2.1c0.6,0.7,1.4,1,2.3,1
			c0.7,0,1.5-0.3,2.1-0.8c1.3-1.1,1.3-3.1,0.2-4.3C264,542.6,263.4,541.9,262.8,541.3z"/>
	</g>
	<g>
		<path fill="#1C3E58" d="M1125,295.1c-1.7,0-3.1,1.4-3.1,3.1v2.8c0,1.7,1.4,3.1,3.1,3.1s3.1-1.4,3.1-3.1v-2.8
			C1128.1,296.5,1126.7,295.1,1125,295.1z"/>
		<path fill="#1C3E58" d="M1125,278.4c-1.7,0-3.1,1.4-3.1,3.1v2.8c0,1.7,1.4,3.1,3.1,3.1s3.1-1.4,3.1-3.1v-2.8
			C1128.1,279.8,1126.7,278.4,1125,278.4z"/>
		<path fill="#1C3E58" d="M1125,328.6c-1.7,0-3.1,1.4-3.1,3.1v2.8c0,1.7,1.4,3.1,3.1,3.1s3.1-1.4,3.1-3.1v-2.8
			C1128.1,330,1126.7,328.6,1125,328.6z"/>
		<path fill="#1C3E58" d="M1125,311.9c-1.7,0-3.1,1.4-3.1,3.1v2.8c0,1.7,1.4,3.1,3.1,3.1s3.1-1.4,3.1-3.1V315
			C1128.1,313.3,1126.7,311.9,1125,311.9z"/>
		<path fill="#1C3E58" d="M1125,244.9c-1.7,0-3.1,1.4-3.1,3.1v2.8c0,1.7,1.4,3.1,3.1,3.1s3.1-1.4,3.1-3.1V248
			C1128.1,246.3,1126.7,244.9,1125,244.9z"/>
		<path fill="#1C3E58" d="M1125,261.6c-1.7,0-3.1,1.4-3.1,3.1v2.8c0,1.7,1.4,3.1,3.1,3.1s3.1-1.4,3.1-3.1v-2.8
			C1128.1,263,1126.7,261.6,1125,261.6z"/>
		<path fill="#1C3E58" d="M1125,194.6c-1.7,0-3.1,1.4-3.1,3.1v2.8c0,1.7,1.4,3.1,3.1,3.1s3.1-1.4,3.1-3.1v-2.8
			C1128.1,196,1126.7,194.6,1125,194.6z"/>
		<path fill="#1C3E58" d="M1125,211.4c-1.7,0-3.1,1.4-3.1,3.1v2.8c0,1.7,1.4,3.1,3.1,3.1s3.1-1.4,3.1-3.1v-2.8
			C1128.1,212.8,1126.7,211.4,1125,211.4z"/>
		<path fill="#1C3E58" d="M1125,228.1c-1.7,0-3.1,1.4-3.1,3.1v2.8c0,1.7,1.4,3.1,3.1,3.1s3.1-1.4,3.1-3.1v-2.8
			C1128.1,229.5,1126.7,228.1,1125,228.1z"/>
	</g>
	<g>
		<path fill="#1C3E58" d="M1058.8,454.5h-2.8c-1.7,0-3.1,1.4-3.1,3.1c0,1.7,1.4,3.1,3.1,3.1h2.8c1.7,0,3.1-1.4,3.1-3.1
			C1061.9,455.9,1060.5,454.5,1058.8,454.5z"/>
		<path fill="#1C3E58" d="M1042.1,454.5h-2.8c-1.7,0-3.1,1.4-3.1,3.1c0,1.7,1.4,3.1,3.1,3.1h2.8c1.7,0,3.1-1.4,3.1-3.1
			C1045.1,455.9,1043.8,454.5,1042.1,454.5z"/>
		<path fill="#1C3E58" d="M1025.3,454.5h-2.8c-1.7,0-3.1,1.4-3.1,3.1c0,1.7,1.4,3.1,3.1,3.1h2.8c1.7,0,3.1-1.4,3.1-3.1
			C1028.4,455.9,1027,454.5,1025.3,454.5z"/>
		<path fill="#1C3E58" d="M1075.6,454.5h-2.8c-1.7,0-3.1,1.4-3.1,3.1c0,1.7,1.4,3.1,3.1,3.1h2.8c1.7,0,3.1-1.4,3.1-3.1
			C1078.6,455.9,1077.3,454.5,1075.6,454.5z"/>
		<path fill="#1C3E58" d="M1142.6,454.5h-2.8c-1.7,0-3.1,1.4-3.1,3.1c0,1.7,1.4,3.1,3.1,3.1h2.8c1.7,0,3.1-1.4,3.1-3.1
			C1145.6,455.9,1144.3,454.5,1142.6,454.5z"/>
		<path fill="#1C3E58" d="M1125.8,454.5h-2.8c-1.7,0-3.1,1.4-3.1,3.1c0,1.7,1.4,3.1,3.1,3.1h2.8c1.7,0,3.1-1.4,3.1-3.1
			C1128.9,455.9,1127.5,454.5,1125.8,454.5z"/>
		<path fill="#1C3E58" d="M1092.3,454.5h-2.8c-1.7,0-3.1,1.4-3.1,3.1c0,1.7,1.4,3.1,3.1,3.1h2.8c1.7,0,3.1-1.4,3.1-3.1
			C1095.4,455.9,1094,454.5,1092.3,454.5z"/>
		<path fill="#1C3E58" d="M1109.1,454.5h-2.8c-1.7,0-3.1,1.4-3.1,3.1c0,1.7,1.4,3.1,3.1,3.1h2.8c1.7,0,3.1-1.4,3.1-3.1
			C1112.1,455.9,1110.8,454.5,1109.1,454.5z"/>
	</g>
	<g>
		<path fill="#1C3E58" d="M1381.6,170.8c-0.8-0.5-1.6-1-2.5-1.4c-1.5-0.8-3.3-0.3-4.2,1.1c-0.8,1.5-0.3,3.3,1.1,4.2
			c0.8,0.5,1.6,0.9,2.4,1.4c0.5,0.3,1,0.4,1.6,0.4c1,0,2.1-0.5,2.6-1.5C1383.5,173.6,1383,171.7,1381.6,170.8z"/>
		<path fill="#1C3E58" d="M1395.7,180.5c-0.8-0.6-1.5-1.2-2.3-1.7c-1.4-1-3.3-0.7-4.3,0.6c-1,1.4-0.7,3.3,0.6,4.3
			c0.7,0.5,1.5,1.1,2.2,1.6c0.6,0.4,1.2,0.6,1.9,0.6c0.9,0,1.8-0.4,2.4-1.2C1397.3,183.5,1397,181.5,1395.7,180.5z"/>
		<path fill="#1C3E58" d="M1333.8,152.8c-0.9-0.2-1.9-0.3-2.8-0.5c-1.7-0.3-3.2,0.9-3.5,2.5c-0.3,1.7,0.9,3.2,2.5,3.5
			c0.9,0.1,1.8,0.3,2.7,0.5c0.2,0,0.4,0.1,0.6,0.1c1.5,0,2.7-1,3-2.5C1336.5,154.7,1335.4,153.1,1333.8,152.8z"/>
		<path fill="#1C3E58" d="M1316.8,150.7c-1-0.1-1.9-0.1-2.9-0.1c-1.7-0.1-3.1,1.3-3.2,3c-0.1,1.7,1.3,3.1,3,3.2
			c0.9,0,1.8,0.1,2.7,0.1c0.1,0,0.1,0,0.2,0c1.6,0,3-1.3,3.1-2.9C1319.7,152.3,1318.4,150.8,1316.8,150.7z"/>
		<path fill="#1C3E58" d="M1350.4,156.9c-0.9-0.3-1.8-0.6-2.7-0.8c-1.6-0.5-3.3,0.5-3.8,2.1c-0.5,1.6,0.5,3.3,2.1,3.8
			c0.9,0.3,1.7,0.5,2.6,0.8c0.3,0.1,0.6,0.1,0.9,0.1c1.3,0,2.5-0.8,2.9-2.2C1352.9,159.1,1352,157.4,1350.4,156.9z"/>
		<path fill="#1C3E58" d="M1366.4,162.9c-0.9-0.4-1.7-0.8-2.6-1.1c-1.6-0.7-3.4,0.1-4,1.6c-0.7,1.6,0.1,3.4,1.6,4
			c0.8,0.4,1.7,0.7,2.5,1.1c0.4,0.2,0.8,0.3,1.3,0.3c1.2,0,2.3-0.7,2.8-1.8C1368.6,165.4,1367.9,163.6,1366.4,162.9z"/>
		<path fill="#1C3E58" d="M1437.5,233.9c-0.4-0.9-0.8-1.7-1.2-2.6c-0.7-1.5-2.5-2.2-4.1-1.5c-1.5,0.7-2.2,2.5-1.5,4.1
			c0.4,0.8,0.7,1.6,1.1,2.5c0.5,1.2,1.6,1.9,2.8,1.9c0.4,0,0.8-0.1,1.2-0.3C1437.5,237.2,1438.2,235.4,1437.5,233.9z"/>
		<path fill="#1C3E58" d="M1406.5,189.8c-1.2-1.2-3.2-1.1-4.3,0.1c-1.2,1.2-1.1,3.2,0.1,4.3c0.7,0.6,1.3,1.3,2,1.9
			c0.6,0.6,1.4,0.9,2.2,0.9c0.8,0,1.6-0.3,2.2-0.9c1.2-1.2,1.2-3.1,0-4.3C1407.9,191.1,1407.2,190.4,1406.5,189.8z"/>
		<path fill="#1C3E58" d="M1443.2,264.5l3-0.4c-0.2-1.7-1.8-2.9-3.4-2.6c-1.7,0.2-2.9,1.8-2.6,3.4c0,0,0,0.1,0,0.2
			c0.3,1.5,1.6,2.6,3,2.6c0.2,0,0.3,0,0.5,0c1.7-0.3,2.8-1.8,2.5-3.5L1443.2,264.5z"/>
		<path fill="#1C3E58" d="M1441.1,253.8c1.6-0.5,2.6-2.1,2.1-3.8c-0.3-0.9-0.5-1.8-0.8-2.7c-0.5-1.6-2.2-2.5-3.8-2
			c-1.6,0.5-2.5,2.2-2,3.8c0.3,0.9,0.5,1.7,0.8,2.6c0.4,1.4,1.6,2.2,3,2.2C1440.5,253.9,1440.8,253.9,1441.1,253.8z"/>
		<path fill="#1C3E58" d="M1428.2,216.2c-0.9-1.4-2.8-1.9-4.2-1c-1.4,0.9-1.9,2.8-1,4.2c0.5,0.8,1,1.5,1.4,2.3
			c0.6,1,1.6,1.5,2.6,1.5c0.5,0,1.1-0.1,1.6-0.4c1.5-0.9,1.9-2.8,1.1-4.2C1429.2,217.8,1428.7,217,1428.2,216.2z"/>
		<path fill="#1C3E58" d="M1418.2,202.3c-1.1-1.3-3-1.5-4.3-0.4c-1.3,1.1-1.5,3-0.4,4.3c0.6,0.7,1.1,1.4,1.7,2.1
			c0.6,0.8,1.5,1.2,2.4,1.2c0.7,0,1.3-0.2,1.9-0.7c1.3-1,1.6-3,0.5-4.3C1419.4,203.8,1418.8,203,1418.2,202.3z"/>
	</g>
	<g>
		<path fill="#1C3E58" d="M1513.9,583.9C1513.9,583.9,1513.9,583.9,1513.9,583.9l-2.8,0c-1.7,0-3,1.4-3,3.1c0,1.7,1.4,3,3.1,3
			c0,0,0,0,0,0l2.7,0c1.7,0,3.1-1.4,3-3.1C1516.9,585.2,1515.6,583.9,1513.9,583.9z"/>
		<path fill="#1C3E58" d="M1530.6,583.7C1530.6,583.7,1530.6,583.7,1530.6,583.7l-2.8,0c-1.7,0-3.1,1.4-3,3.1c0,1.7,1.4,3,3.1,3
			c0,0,0,0,0,0l2.8,0c1.7,0,3-1.4,3-3.1C1533.7,585.1,1532.3,583.7,1530.6,583.7z"/>
		<path fill="#1C3E58" d="M1547,583.3c-0.8,0.1-1.7,0.2-2.5,0.2c-1.7,0.1-3,1.5-3,3.2c0.1,1.7,1.4,3,3.1,3c0,0,0.1,0,0.1,0
			c1,0,2.1-0.1,3.1-0.2c1.7-0.2,2.9-1.7,2.7-3.4C1550.2,584.3,1548.7,583.1,1547,583.3z"/>
		<path fill="#1C3E58" d="M1497.1,584C1497.1,584,1497.1,584,1497.1,584l-2.8,0c-1.7,0-3,1.4-3,3.1c0,1.7,1.4,3.1,3.1,3.1
			c0,0,0,0,0,0l2.8,0c1.7,0,3.1-1.4,3.1-3.1C1500.2,585.3,1498.8,584,1497.1,584z"/>
		<path fill="#1C3E58" d="M1463.8,583.6c-0.9-0.1-1.4-0.1-1.6-0.1c-0.5-0.2-1.1-0.3-1.7-0.3c-1.7,0.2-2.8,1.8-2.6,3.5
			c0.4,2.7,3,2.9,5.5,3.1c0.1,0,0.1,0,0.2,0c1.6,0,2.9-1.2,3.1-2.9C1466.8,585.1,1465.5,583.7,1463.8,583.6z M1463.9,585.8
			L1463.9,585.8L1463.9,585.8z M1463.9,585.8C1463.9,585.8,1463.9,585.8,1463.9,585.8C1463.9,585.8,1463.9,585.8,1463.9,585.8z"/>
		<path fill="#1C3E58" d="M1560.6,577.5c-0.6,0.5-1.3,1-2,1.5c-1.4,0.9-1.8,2.8-0.8,4.3c0.6,0.9,1.6,1.4,2.5,1.4
			c0.6,0,1.2-0.2,1.7-0.5c0.8-0.6,1.7-1.2,2.5-1.8c1.3-1.1,1.5-3,0.4-4.3C1563.9,576.6,1561.9,576.4,1560.6,577.5z"/>
		<path fill="#1C3E58" d="M1480.4,583.9l-2.8,0c0,0,0,0,0,0c-1.7,0-3,1.4-3.1,3c0,1.7,1.3,3.1,3,3.1l2.8,0c0,0,0,0,0,0
			c1.7,0,3.1-1.4,3.1-3C1483.4,585.3,1482.1,584,1480.4,583.9z"/>
		<path fill="#1C3E58" d="M1573.7,496.4c-1.7,0-3.1,1.4-3.1,3.1v2.8c0,1.7,1.4,3.1,3.1,3.1c1.7,0,3.1-1.4,3.1-3.1v-2.8
			C1576.7,497.8,1575.3,496.4,1573.7,496.4z"/>
		<path fill="#1C3E58" d="M1573.7,462.9c-1.7,0-3.1,1.4-3.1,3.1v2.8c0,1.7,1.4,3.1,3.1,3.1c1.7,0,3.1-1.4,3.1-3.1V466
			C1576.7,464.3,1575.3,462.9,1573.7,462.9z"/>
		<path fill="#1C3E58" d="M1573,563.4c-1.6-0.5-3.3,0.3-3.9,1.9c-0.3,0.8-0.6,1.6-0.9,2.3c-0.7,1.5,0,3.4,1.5,4.1
			c0.4,0.2,0.8,0.3,1.3,0.3c1.2,0,2.3-0.7,2.8-1.8c0.4-0.9,0.8-1.9,1.1-2.9C1575.5,565.7,1574.6,564,1573,563.4z"/>
		<path fill="#1C3E58" d="M1573.7,446.1c-1.7,0-3.1,1.4-3.1,3.1v2.8c0,1.7,1.4,3.1,3.1,3.1c1.7,0,3.1-1.4,3.1-3.1v-2.8
			C1576.7,447.5,1575.3,446.1,1573.7,446.1z"/>
		<path fill="#1C3E58" d="M1573.7,479.7c-1.7,0-3.1,1.4-3.1,3.1v2.8c0,1.7,1.4,3.1,3.1,3.1c1.7,0,3.1-1.4,3.1-3.1v-2.8
			C1576.7,481,1575.3,479.7,1573.7,479.7z"/>
		<path fill="#1C3E58" d="M1573.7,546.7c-1.7,0-3.1,1.4-3.1,3.1v2.8c0,1.7,1.4,3.1,3.1,3.1c1.7,0,3.1-1.4,3.1-3.1v-2.8
			C1576.7,548,1575.3,546.7,1573.7,546.7z"/>
		<path fill="#1C3E58" d="M1573.7,513.2c-1.7,0-3.1,1.4-3.1,3.1v2.8c0,1.7,1.4,3.1,3.1,3.1c1.7,0,3.1-1.4,3.1-3.1v-2.8
			C1576.7,514.5,1575.3,513.2,1573.7,513.2z"/>
		<path fill="#1C3E58" d="M1573.7,529.9c-1.7,0-3.1,1.4-3.1,3.1v2.8c0,1.7,1.4,3.1,3.1,3.1c1.7,0,3.1-1.4,3.1-3.1V533
			C1576.7,531.3,1575.3,529.9,1573.7,529.9z"/>
	</g>
</g>
</svg>
