<?xml version="1.0" encoding="utf-8"?>
<!-- Generator: Adobe Illustrator 21.0.2, SVG Export Plug-In . SVG Version: 6.00 Build 0)  -->
<svg version="1.1" id="Laag_1" xmlns="http://www.w3.org/2000/svg" xmlns:xlink="http://www.w3.org/1999/xlink" x="0px" y="0px"
	 viewBox="0 0 144.9 73.6" enable-background="new 0 0 144.9 73.6" xml:space="preserve">
<g>
	<path fill="#FFFFFF" d="M94.6,16.5c2.2,0.9,5.6,2.3,8,3.5c-3.8-0.6-7.9-1.1-10.8-1.2c-1.3,0.4-5,2.2-9.3,4
		C50.8,37.4,34.4,40.8,7.9,41.2c-2.7-0.2-4.9-0.3-7.6-0.6L0,40.5c23.4,0.2,44-3.8,81.2-20.7c2.1-1,3.7-1.7,5.5-2.4
		c1.3-0.3,4.4-0.6,6.2-0.6l-5.7-1.3c11.1-4.4,17.3-6.7,25.4-7.6c1.9-2.2,3.7-4.2,5-5.3C119.2,1.5,122,0,122,0
		c-2.3,3.4-3.8,6.9-4.9,9.7C109.7,10.2,101.5,13.2,94.6,16.5z"/>
	<path fill="#FFFFFF" d="M141.9,12.3c-3-0.7-9.1-1.7-11.9-1.6c-0.6,0.8-1.6,1.8-1.9,2.1c-0.4,0.3-1.9,0.4-3.7,0.5
		c2.9-2,5.4-3.2,5.4-3.2c-3.6-0.6-8.7-0.9-12-0.5l2.7-2.3c3.5,0,7.9,0.5,11.3,1.3c-0.4,0.5-1.5,1.8-1.5,1.8s2.8-0.6,4.2-1
		c2.5,0.3,5.2,1.5,7,2.3C141.7,12,141.8,12.2,141.9,12.3z"/>
</g>
<g>
	<path fill="#FFFFFF" d="M64.9,67.1c0-4.5-2.7-7-6.3-7c-3.9,0-6.7,2.7-6.7,6.8c0,4.1,3,6.8,7.3,6.8c1.3,0,2.4-0.2,3.4-0.6l1.8-3.1
		l-0.2-0.1C62.6,70.6,61,71,59.5,71c-2.2,0-4.1-1.1-4.4-3.1h9.8V67.1z M55.1,65.6c0.2-1.9,1.4-3.1,3.3-3.1c2,0,3.2,1.2,3.3,3.1H55.1
		z M125.5,60.1c-3.9,0-6.7,2.7-6.7,6.8c0,4.1,3,6.8,7.3,6.8c1.3,0,2.4-0.2,3.4-0.6l1.8-3.1l-0.2-0.1c-1.6,0.8-3.2,1.3-4.7,1.3
		c-2.2,0-4.1-1.1-4.4-3.1h9.8C132.2,62.9,129.5,60.1,125.5,60.1z M122,65.6c0.2-1.9,1.4-3.1,3.3-3.1c2,0,3.3,1.2,3.3,3.1H122z
		 M80.5,60.1c-3.9,0-6.7,2.7-6.7,6.8c0,4.1,3,6.8,7.3,6.8c1.3,0,2.4-0.2,3.4-0.6l1.8-3.1l-0.2-0.1c-1.6,0.8-3.2,1.3-4.7,1.3
		c-2.2,0-4.1-1.1-4.4-3.1h9.8C87.3,62.9,84.5,60.1,80.5,60.1z M77,65.6c0.2-1.9,1.4-3.1,3.3-3.1c2,0,3.3,1.2,3.3,3.1H77z M14,63.3
		L14,63.3c2-0.6,3.3-2.1,3.3-4.2c0-3.5-3-4.8-5.8-4.8H4.5v0H1.8v0.3l1,0.8c1.2,1,1.3,1.1,1.3,2v15.9h6.8c3.6,0,7.2-1.3,7.2-5.4
		C18.1,65.4,16.4,63.6,14,63.3z M7.4,57.2h2.8c1.9,0,2.5,0.3,3,0.8c0.4,0.4,0.6,1,0.6,1.6c0,0.6-0.2,1.2-0.7,1.6
		c-0.6,0.5-1.3,0.8-2.7,0.8H7.4V57.2z M10.5,70.4H7.4v-5.5h3.2c2.7,0,4,0.7,4,2.7C14.7,70.1,12.3,70.4,10.5,70.4z M24.5,56
		c0,1.1-0.9,1.9-2.1,1.9c-1.2,0-2-0.9-2-1.9c0-1,0.9-1.9,2-1.9C23.6,54.1,24.5,54.9,24.5,56z M19.1,60.4h5v12.9h-3.2V63.2h0
		c0-1.1-0.1-1.2-1.2-2.1l-0.5-0.4V60.4z M44.7,53.5v0.2l1,0.7c0.9,0.6,1.1,0.9,1.1,1.7v6h-0.1c-0.7-0.8-2-2-4.4-2
		c-3.7,0-6.2,3-6.2,6.8c0,3.8,2.4,6.8,6.4,6.8c1.8,0,3.5-0.7,4.4-2.3h0.1l0.3,1.9H50V53.5H44.7z M43.1,70.7c-2.4,0-3.8-1.8-3.8-3.9
		c0-2,1.4-3.9,3.8-3.9c2.4,0,3.8,1.9,3.8,3.9C46.9,68.9,45.5,70.7,43.1,70.7z M111.5,53.5v0.2l0.4,0.3c1.6,1,1.7,1.3,1.7,2.9v5.1
		h-0.1c-0.7-0.8-2-2-4.4-2c-3.7,0-6.2,3-6.2,6.8c0,3.8,2.4,6.8,6.4,6.8c1.8,0,3.5-0.7,4.4-2.3h0.1l0.3,1.9h2.7V53.5H111.5z
		 M110,70.7c-2.4,0-3.8-1.8-3.8-3.9c0-2,1.4-3.9,3.8-3.9c2.4,0,3.8,1.9,3.8,3.9C113.8,68.9,112.4,70.7,110,70.7z M142.1,60.3v3.1
		c-0.5-0.1-1-0.2-1.6-0.2c-3,0-3.5,2.6-3.5,3.2v6.9h-3.2v-9.5c0-1.6-0.1-1.9-1.4-2.7l-0.8-0.5l0-0.1h5.4v2h0.1
		c0.7-1.5,2.1-2.4,3.8-2.4C141.4,60.1,141.8,60.2,142.1,60.3z M70.6,60.4h3v2.7h-3v10.2h-3.2v-9.1c0-1.1-0.2-1.3-1.5-2.3l-1.6-1.3
		v-0.2h3.1V58c0-3.5,2.3-5.7,7.2-4.7l0.7,2.7l-0.2,0.1c-2.6-1-4.6-0.4-4.6,1.9V60.4z M101.2,65.2v8.1h-3.2v-7.2
		c0-1.4-0.4-3.1-2.6-3.1c-2.1,0-3,1.6-3,3.3v7h-3.2v-9.5c0-1.6-0.1-1.9-1.4-2.7l-0.8-0.5v-0.1h2.5v0h2.7v2h0.1
		c1.1-1.6,2.7-2.3,4.1-2.3C99.4,60.1,101.2,62.2,101.2,65.2z M35.1,70.7l0.1,0.1c0,0-1.6,2.6-1.6,2.6c-2.6,0.7-5.6,0-5.6-4.3v-5.9
		l0,0.7c0-0.8-0.1-0.8-1.9-2.3l-1.2-1v-0.2H28l1.2-3.7h2v3.7h3.4v2.7h-3.4V69C31.3,71.3,32.8,71.4,35.1,70.7z"/>
	<g>
		<path fill="#FFFFFF" d="M142.9,54h-0.8v2.4h0.1v-1.1h0.7c0,0,0,0,0,0l0,0l0,0l0.7,1.1h0.1l-0.8-1.2l0,0c0.1,0,0.2,0,0.2-0.1
			c0.1,0,0.1-0.1,0.2-0.1c0.1-0.1,0.1-0.1,0.1-0.2c0-0.1,0.1-0.2,0.1-0.3c0-0.2-0.1-0.4-0.2-0.5C143.3,54.1,143.1,54,142.9,54z
			 M143.6,54.7c0,0.1,0,0.2-0.1,0.3c-0.1,0.1-0.1,0.1-0.2,0.2c-0.1,0-0.2,0.1-0.3,0.1c-0.1,0-0.2,0-0.3,0h-0.6v-1.1h0.7
			c0.1,0,0.2,0,0.3,0c0.1,0,0.2,0,0.2,0.1c0.1,0,0.1,0.1,0.2,0.2C143.5,54.4,143.6,54.5,143.6,54.7z"/>
		<path fill="#FFFFFF" d="M144.7,56c0.1-0.3,0.2-0.5,0.2-0.8c0-0.3-0.1-0.6-0.2-0.8c-0.1-0.3-0.3-0.5-0.5-0.7
			c-0.2-0.2-0.4-0.3-0.7-0.5c-0.3-0.1-0.5-0.2-0.8-0.2c-0.3,0-0.6,0.1-0.8,0.2c-0.3,0.1-0.5,0.3-0.7,0.5c-0.2,0.2-0.3,0.4-0.5,0.7
			c-0.1,0.3-0.2,0.5-0.2,0.8c0,0.3,0.1,0.6,0.2,0.8c0.1,0.3,0.3,0.5,0.5,0.7c0.2,0.2,0.4,0.3,0.7,0.5c0.3,0.1,0.5,0.2,0.8,0.2
			c0.3,0,0.6-0.1,0.8-0.2c0.3-0.1,0.5-0.3,0.7-0.5C144.5,56.5,144.6,56.3,144.7,56z M143.6,57.1c-0.2,0.1-0.5,0.2-0.8,0.2
			c-0.3,0-0.6-0.1-0.8-0.2c-0.2-0.1-0.5-0.3-0.6-0.4c-0.2-0.2-0.3-0.4-0.4-0.6c-0.1-0.2-0.2-0.5-0.2-0.8c0-0.3,0.1-0.5,0.2-0.8
			c0.1-0.2,0.3-0.5,0.4-0.7c0.2-0.2,0.4-0.3,0.6-0.4c0.2-0.1,0.5-0.2,0.8-0.2c0.3,0,0.5,0.1,0.8,0.2c0.2,0.1,0.5,0.3,0.6,0.4
			c0.2,0.2,0.3,0.4,0.4,0.6c0.1,0.2,0.2,0.5,0.2,0.8c0,0.3-0.1,0.6-0.2,0.8c-0.1,0.2-0.3,0.5-0.4,0.6C144,56.8,143.8,57,143.6,57.1z
			"/>
	</g>
</g>
</svg>
