<?xml version="1.0" encoding="utf-8"?>
<!-- Generator: Adobe Illustrator 21.0.2, SVG Export Plug-In . SVG Version: 6.00 Build 0)  -->
<svg version="1.1" id="Laag_1" xmlns="http://www.w3.org/2000/svg" xmlns:xlink="http://www.w3.org/1999/xlink" x="0px" y="0px"
	 viewBox="0 0 153.5 40.1" enable-background="new 0 0 153.5 40.1" xml:space="preserve">
<g>
	<path fill="#FFFFFF" d="M153.5,40h-7.6V9.6L129,21.1L112.2,9.7V40h-7.6V5.6c0-2.3,0.9-3.9,2.5-4.9c2.5-1.5,4.9,0,5,0.1L129,12.2
		c0.1-0.1,15.3-10.5,17-11.4c1.2-0.7,3.2-1.1,5.1-0.1c2.1,1.1,2.5,3.6,2.5,4.5v28.2V40z"/>
	<path fill="#FFFFFF" d="M101.2,32.4v7.7c0,0-41.3,0-41.9,0c-0.9,0-3.5,0-5.3-2c-1.3-1.4-1.7-3.2-1.7-5.2c0-2,0-25.1,0-26.2
		c0-0.5,0-3,1.7-4.7C55.8,0.2,57.8,0,59.2,0h42.1v7.7H59.9v24.7L101.2,32.4z"/>
	<path fill="#FFFFFF" d="M39.2,21.1c-2.2,2.5-7.9,3.8-11.2,4.1c-6.8,0.7-14.5-0.1-20.4-1.2V7.6h25.8c0.7,0,3.7,0,5.4,1.2
		c1.5,1,2.3,2.7,2.5,4.9C41.4,15.7,41.5,18.5,39.2,21.1 M48.8,13.3c-0.4-5.5-2.5-8.7-5.9-11C39.5,0.1,35.3,0,32.8,0
		c-1.1,0-24,0-25.9,0C5,0.1,3.8,0.2,2.1,1.6C0.1,3.3,0,5.9,0,6.5c0,0.8,0,33.6,0,33.6h7.6v-8.3c2.3,0.4,9.5,1.4,16,1.3
		c4.3-0.1,13.7-0.6,19.5-5.4C48.2,23.5,49.2,18.8,48.8,13.3"/>
</g>
</svg>
