<?xml version="1.0" encoding="utf-8"?>
<!-- Generator: Adobe Illustrator 21.0.2, SVG Export Plug-In . SVG Version: 6.00 Build 0)  -->
<svg version="1.1" id="Laag_1" xmlns="http://www.w3.org/2000/svg" xmlns:xlink="http://www.w3.org/1999/xlink" x="0px" y="0px"
	 viewBox="0 0 56 56" enable-background="new 0 0 56 56" xml:space="preserve">
<path fill="#FFFFFF" d="M27.9,49.1C26.3,50.2,25,51,24,51.5V4.3l20,7.8v8c1.4,0.2,2.7,0.5,4,0.9V9.3L24,0L0,9.3V22
	c0,23.2,24,34,24,34s2.9-1.3,6.7-4C29.6,51.1,28.7,50.2,27.9,49.1z"/>
<path fill="#FFFFFF" d="M55.9,36.4c0-0.2,0-0.3-0.1-0.5c-0.1-0.4-0.1-0.7-0.2-1.1c0-0.2-0.1-0.3-0.1-0.5c-0.1-0.4-0.2-0.7-0.3-1.1
	c-0.1-0.1-0.1-0.3-0.2-0.4c-0.2-0.4-0.4-0.9-0.6-1.3c0,0,0-0.1-0.1-0.1l0,0c-0.8-1.5-1.9-2.9-3.2-4l0,0c0,0-0.1,0-0.1-0.1
	c-0.2-0.2-0.4-0.3-0.6-0.4c-0.2-0.1-0.3-0.2-0.5-0.3c-0.2-0.1-0.4-0.3-0.6-0.4c-0.2-0.1-0.3-0.2-0.5-0.3c-0.2-0.1-0.4-0.2-0.6-0.3
	c-0.2-0.1-0.4-0.2-0.6-0.3c-0.2-0.1-0.4-0.2-0.6-0.3c-0.2-0.1-0.4-0.2-0.6-0.2c-0.2-0.1-0.4-0.1-0.6-0.2c-0.1,0-0.3-0.1-0.5-0.1
	l-2,18.1h-2.7l-2.4-18c-0.6,0.2-1.1,0.3-1.7,0.5c-0.1,0-0.2,0.1-0.3,0.1c-3.1,1.3-5.6,3.8-7.1,6.8c-0.3,0.6-0.6,1.2-0.8,1.9
	C28.2,35.2,28,36.6,28,38c0,7.7,6.3,14,14,14c1.4,0,2.8-0.2,4.2-0.6c0.6-0.2,1.3-0.5,1.9-0.8c3-1.5,5.5-4,6.8-7.1
	c0-0.1,0.1-0.2,0.1-0.3c0.6-1.6,1-3.4,1-5.2C56,37.5,56,36.9,55.9,36.4z M42,50.3c-1.2,0-2.1-1-2.1-2.1s1-2.1,2.1-2.1
	c1.2,0,2.1,1,2.1,2.1S43.2,50.3,42,50.3z"/>
</svg>
